SplineFontDB: 3.0
FontName: Actor-Regular
FullName: Actor
FamilyName: Actor
Weight: Regular
Copyright: Copyright (c) 2011 by Thomas Junold <der@thomasjunold.de>, with Reserved Font Name "Actor".
Version: 001.002
ItalicAngle: 0
UnderlinePosition: -250
UnderlineWidth: 50
Ascent: 772
Descent: 228
sfntRevision: 0x00010000
LayerCount: 2
Layer: 0 0 "Back"  1
Layer: 1 0 "Fore"  0
XUID: [1021 288 713564382 6119002]
FSType: 0
OS2Version: 2
OS2_WeightWidthSlopeOnly: 0
OS2_UseTypoMetrics: 1
CreationTime: 1310047674
ModificationTime: 1310759886
PfmFamily: 33
TTFWeight: 400
TTFWidth: 5
LineGap: 0
VLineGap: 0
Panose: 2 11 5 3 5 0 0 2 0 4
OS2TypoAscent: 772
OS2TypoAOffset: 0
OS2TypoDescent: -228
OS2TypoDOffset: 0
OS2TypoLinegap: 0
OS2WinAscent: 772
OS2WinAOffset: 0
OS2WinDescent: 228
OS2WinDOffset: 0
HheadAscent: 772
HheadAOffset: 0
HheadDescent: -228
HheadDOffset: 0
OS2SubXSize: 700
OS2SubYSize: 650
OS2SubXOff: 0
OS2SubYOff: 140
OS2SupXSize: 700
OS2SupYSize: 650
OS2SupXOff: 0
OS2SupYOff: 477
OS2StrikeYSize: 50
OS2StrikeYPos: 250
OS2FamilyClass: 2050
OS2Vendor: 'PfEd'
OS2CodePages: 20000000.00000000
OS2UnicodeRanges: 800000af.4000004a.00000000.00000000
Lookup: 4 0 1 "'liga' Standard Ligatures in Latin lookup 0"  {"'liga' Standard Ligatures in Latin lookup 0 subtable"  } ['liga' ('latn' <'dflt' > ) ]
Lookup: 258 0 0 "'kern' Horizontal Kerning in Latin lookup 0"  {"'kern' Horizontal Kerning in Latin lookup 0 per glyph data 0"  "'kern' Horizontal Kerning in Latin lookup 0 per glyph data 1"  "'kern' Horizontal Kerning in Latin lookup 0 kerning class 2"  } ['kern' ('latn' <'dflt' > ) ]
MarkAttachClasses: 1
DEI: 91125
KernClass2: 3+ 6 "'kern' Horizontal Kerning in Latin lookup 0 kerning class 2" 
 3 V W
 18 Y Yacute Ydieresis
 59 a aacute acircumflex adieresis agrave aring atilde fi fl mu
 54 o oacute ocircumflex odieresis oe ograve oslash otilde
 117 a aacute acircumflex adieresis ae agrave aring atilde c ccedilla d e eacute ecircumflex edieresis egrave g q infinity

StartChar: A
Encoding: 65 65 1
Width: 632
Flags: MW
HStem: 182 80<204 428 204 455 178 428>
LayerCount: 2
Fore
SplineSet
30 0 m 1
 264 682 l 1
 368 682 l 1
 602 0 l 1
 515 0 l 1
 455 182 l 1
 178 182 l 1
 117 0 l 1
 30 0 l 1
204 262 m 1
 428 262 l 1
 318 602 l 1
 315 602 l 1
 204 262 l 1
EndSplineSet
EndChar

StartChar: AE
Encoding: 198 198 2
Width: 900
Flags: MW
HStem: 0 77<491 835 491 835> 192 80<251 407 251 407 214 407> 312 75<491 801 491 801> 605 77<491 825 491 491>
VStem: 407 84<77 192 192 192 272 312 387 602 602 602>
LayerCount: 2
Fore
SplineSet
407 192 m 1
 214 192 l 1
 126 0 l 1
 30 0 l 1
 359 682 l 1
 825 682 l 1
 825 605 l 1
 491 605 l 1
 491 387 l 1
 801 387 l 1
 801 312 l 1
 491 312 l 1
 491 77 l 1
 835 77 l 1
 835 0 l 1
 407 0 l 1
 407 192 l 1
403 602 m 1
 251 272 l 1
 407 272 l 1
 407 602 l 1
 403 602 l 1
EndSplineSet
EndChar

StartChar: Aacute
Encoding: 193 193 3
Width: 633
Flags: MW
HStem: 182 80<204 428 204 455 178 428>
LayerCount: 2
Fore
SplineSet
30 0 m 1
 264 682 l 1
 368 682 l 1
 602 0 l 1
 515 0 l 1
 455 182 l 1
 178 182 l 1
 117 0 l 1
 30 0 l 1
204 262 m 1
 428 262 l 1
 318 602 l 1
 315 602 l 1
 204 262 l 1
216 813 m 1
 388 938 l 1
 440 877 l 1
 250 768 l 1
 216 813 l 1
EndSplineSet
EndChar

StartChar: Acircumflex
Encoding: 194 194 4
Width: 633
Flags: MW
HStem: 182 80<204 428 204 455 178 428>
LayerCount: 2
Fore
SplineSet
30 0 m 1
 264 682 l 1
 368 682 l 1
 602 0 l 1
 515 0 l 1
 455 182 l 1
 178 182 l 1
 117 0 l 1
 30 0 l 1
204 262 m 1
 428 262 l 1
 318 602 l 1
 315 602 l 1
 204 262 l 1
161 803 m 1
 296 940 l 1
 336 940 l 1
 471 803 l 1
 431 770 l 1
 316 867 l 1
 201 770 l 1
 161 803 l 1
EndSplineSet
EndChar

StartChar: Adieresis
Encoding: 196 196 5
Width: 633
Flags: MW
HStem: 182 80<204 428 204 455 178 428> 770 108<214 245 385 416>
VStem: 175 111<808.5 839> 346 111<808.5 839>
LayerCount: 2
Fore
SplineSet
30 0 m 1
 264 682 l 1
 368 682 l 1
 602 0 l 1
 515 0 l 1
 455 182 l 1
 178 182 l 1
 117 0 l 1
 30 0 l 1
204 262 m 1
 428 262 l 1
 318 602 l 1
 315 602 l 1
 204 262 l 1
175 824 m 0x70
 175 854 199 878 229 878 c 0
 261 878 286 854 286 824 c 0
 286 793 261 770 229 770 c 0
 199 770 175 793 175 824 c 0x70
346 824 m 0
 346 854 370 878 400 878 c 0
 432 878 457 854 457 824 c 0
 457 793 432 770 400 770 c 0
 370 770 346 793 346 824 c 0
EndSplineSet
EndChar

StartChar: Agrave
Encoding: 192 192 6
Width: 633
Flags: MW
HStem: 182 80<204 428 204 455 178 428>
LayerCount: 2
Fore
SplineSet
30 0 m 1
 264 682 l 1
 368 682 l 1
 602 0 l 1
 515 0 l 1
 455 182 l 1
 178 182 l 1
 117 0 l 1
 30 0 l 1
204 262 m 1
 428 262 l 1
 318 602 l 1
 315 602 l 1
 204 262 l 1
349 769 m 1
 159 878 l 1
 211 939 l 1
 383 814 l 1
 349 769 l 1
EndSplineSet
EndChar

StartChar: Aring
Encoding: 197 197 7
Width: 633
Flags: MW
HStem: 182 80<204 428 204 455 178 428> 719 51<301 333 301 346> 885 51<301 333>
VStem: 209 51<811 843 811 858> 375 51<811 843>
LayerCount: 2
Fore
SplineSet
30 0 m 1
 264 682 l 1
 368 682 l 1
 602 0 l 1
 515 0 l 1
 455 182 l 1
 178 182 l 1
 117 0 l 1
 30 0 l 1
204 262 m 1
 428 262 l 1
 318 602 l 1
 315 602 l 1
 204 262 l 1
209 827 m 0x78
 209 889 255 936 315 936 c 0
 377 936 426 889 426 827 c 0
 426 767 377 719 315 719 c 0
 255 719 209 767 209 827 c 0x78
260 827 m 0
 260 795 285 770 317 770 c 0
 349 770 375 795 375 827 c 0
 375 859 349 885 317 885 c 0
 285 885 260 859 260 827 c 0
EndSplineSet
EndChar

StartChar: Atilde
Encoding: 195 195 8
Width: 633
Flags: MW
HStem: 182 80<204 428 204 455 178 428>
LayerCount: 2
Fore
SplineSet
30 0 m 1
 264 682 l 1
 368 682 l 1
 602 0 l 1
 515 0 l 1
 455 182 l 1
 178 182 l 1
 117 0 l 1
 30 0 l 1
204 262 m 1
 428 262 l 1
 318 602 l 1
 315 602 l 1
 204 262 l 1
434 869 m 1
 488 828 l 1
 452 783 418 765 385 765 c 0
 319 765 282 805 249 805 c 0
 223 805 203 791 186 768 c 1
 134 812 l 1
 168 859 209 870 245 870 c 0
 302 870 340 830 374 830 c 0
 405 830 421 850 434 869 c 1
EndSplineSet
EndChar

StartChar: B
Encoding: 66 66 9
Width: 572
Flags: MW
HStem: 0 75<169 298> 316 70<169 336 169 298> 607 75<169 169 169 267 267 276>
VStem: 85 84<75 316 386 607> 387 85<470.5 546.5> 437 35 437 85<162.5 233>
LayerCount: 2
Fore
SplineSet
85 0 m 1xf2
 85 682 l 1
 267 682 l 2
 411 682 472 629 472 520 c 0xf8
 472 421 405 369 405 369 c 1
 468 344 522 298 522 200 c 0
 522 90 468 0 298 0 c 2
 85 0 l 1xf2
169 607 m 1
 169 386 l 1
 336 386 l 1
 336 386 387 423 387 507 c 0
 387 586 341 607 276 607 c 2
 169 607 l 1
169 316 m 1
 169 75 l 1
 305 75 l 2
 393 75 437 125 437 200 c 0xf4
 437 266 405 316 298 316 c 2
 169 316 l 1
EndSplineSet
EndChar

StartChar: C
Encoding: 67 67 10
Width: 623
Flags: MW
HStem: -13 75<306.5 423.5 306.5 425> 616 75<286 415.5>
VStem: 50 95<251 399 251 451.5>
LayerCount: 2
Fore
SplineSet
569 660 m 1
 551 586 l 1
 551 586 465 616 366 616 c 0
 206 616 145 464 145 334 c 0
 145 168 246 62 367 62 c 0
 480 62 556 90 556 90 c 1
 573 19 l 1
 573 19 483 -13 367 -13 c 0
 157 -13 50 133 50 335 c 0
 50 568 184 691 367 691 c 0
 478 691 569 660 569 660 c 1
EndSplineSet
EndChar

StartChar: Ccedilla
Encoding: 199 199 11
Width: 623
Flags: MW
HStem: -13 75<301.5 418.5 301.5 420> 616 75<281 410.5>
VStem: 45 95<251 399 251 451.5>
LayerCount: 2
Fore
SplineSet
564 660 m 1
 546 586 l 1
 546 586 460 616 361 616 c 0
 201 616 140 464 140 334 c 0
 140 168 241 62 362 62 c 0
 475 62 551 90 551 90 c 1
 568 19 l 1
 568 19 478 -13 362 -13 c 0
 152 -13 45 133 45 335 c 0
 45 568 179 691 362 691 c 0
 473 691 564 660 564 660 c 1
321 -83 m 2
 321 -59 l 1
 400 -59 l 1
 400 -83 l 2
 400 -130 392 -172 326 -244 c 1
 269 -197 l 1
 321 -141 321 -108 321 -83 c 2
EndSplineSet
EndChar

StartChar: D
Encoding: 68 68 12
Width: 711
Flags: MW
HStem: 0 77<169 304 169 304> 605 77<169 169 169 304>
VStem: 85 84<77 605 77 682 77 682> 571 90<245.5 433.5>
LayerCount: 2
Fore
SplineSet
169 605 m 1
 169 77 l 1
 304 77 l 2
 451 77 571 148 571 343 c 0
 571 524 467 605 304 605 c 2
 169 605 l 1
85 0 m 1
 85 682 l 1
 304 682 l 2
 519 682 661 576 661 343 c 0
 661 109 503 0 304 0 c 2
 85 0 l 1
EndSplineSet
EndChar

StartChar: E
Encoding: 69 69 13
Width: 578
Flags: MW
HStem: 0 77<169 513 169 513> 312 75<169 479 169 479> 605 77<169 503 169 169>
VStem: 85 84<77 312 387 605>
LayerCount: 2
Fore
SplineSet
85 0 m 1
 85 682 l 1
 503 682 l 1
 503 605 l 1
 169 605 l 1
 169 387 l 1
 479 387 l 1
 479 312 l 1
 169 312 l 1
 169 77 l 1
 513 77 l 1
 513 0 l 1
 85 0 l 1
EndSplineSet
EndChar

StartChar: Ecircumflex
Encoding: 202 202 15
Width: 578
Flags: MW
HStem: 0 77<169 513 169 513> 312 75<169 479 169 479> 605 77<169 503 169 169>
VStem: 85 84<77 312 387 605>
LayerCount: 2
Fore
SplineSet
85 0 m 1
 85 682 l 1
 503 682 l 1
 503 605 l 1
 169 605 l 1
 169 387 l 1
 479 387 l 1
 479 312 l 1
 169 312 l 1
 169 77 l 1
 513 77 l 1
 513 0 l 1
 85 0 l 1
148 802 m 1
 283 939 l 1
 323 939 l 1
 458 802 l 1
 418 769 l 1
 303 866 l 1
 188 769 l 1
 148 802 l 1
EndSplineSet
EndChar

StartChar: Egrave
Encoding: 200 200 17
Width: 578
Flags: MW
HStem: 0 77<169 513 169 513> 312 75<169 479 169 479> 605 77<169 503 169 169>
VStem: 85 84<77 312 387 605>
LayerCount: 2
Fore
SplineSet
85 0 m 1
 85 682 l 1
 503 682 l 1
 503 605 l 1
 169 605 l 1
 169 387 l 1
 479 387 l 1
 479 312 l 1
 169 312 l 1
 169 77 l 1
 513 77 l 1
 513 0 l 1
 85 0 l 1
359 768 m 1
 169 877 l 1
 221 938 l 1
 393 813 l 1
 359 768 l 1
EndSplineSet
EndChar

StartChar: Eth
Encoding: 208 208 18
Width: 744
Flags: MW
HStem: 0 77<202 337 202 337> 312 80<-5 118 -5 118 202 360> 605 77<202 202 202 337>
VStem: 118 84<77 312 77 312 77 312 392 605> 604 90<245.5 433.5>
LayerCount: 2
Fore
SplineSet
118 0 m 1
 118 312 l 1
 -5 312 l 1
 -5 392 l 1
 118 392 l 1
 118 682 l 1
 337 682 l 2
 552 682 694 576 694 343 c 0
 694 109 536 0 337 0 c 2
 118 0 l 1
202 605 m 1
 202 392 l 1
 360 392 l 1
 360 312 l 1
 202 312 l 1
 202 77 l 1
 337 77 l 2
 484 77 604 148 604 343 c 0
 604 524 500 605 337 605 c 2
 202 605 l 1
EndSplineSet
EndChar

StartChar: Euro
Encoding: 8364 8364 19
Width: 672
Flags: MW
HStem: -12 70<344.5 428> 250 65<75 163 75 163 75 170 256 256 256 473> 389 65<75 163 75 170 255 473> 621 70<359 426>
VStem: 163 89<315 389 315 389>
LayerCount: 2
Fore
SplineSet
75 250 m 1
 75 315 l 1
 163 315 l 1
 163 389 l 1
 75 389 l 1
 75 454 l 1
 170 454 l 1
 204 650 313 691 405 691 c 0
 467 691 563 676 563 676 c 1
 550 606 l 1
 550 606 451 621 401 621 c 0
 307 621 273 549 255 454 c 1
 473 454 l 1
 473 389 l 1
 252 389 l 1
 252 315 l 1
 473 315 l 1
 473 250 l 1
 256 250 l 1
 271 127 282 58 407 58 c 0
 458 58 560 78 560 78 c 1
 572 9 l 1
 572 9 467 -12 389 -12 c 0
 260 -12 205 55 170 250 c 1
 75 250 l 1
EndSplineSet
EndChar

StartChar: F
Encoding: 70 70 20
Width: 558
Flags: MW
HStem: 0 21G<85 85 85 169> 312 75<169 479 169 479> 605 77<169 503 169 169>
VStem: 85 84<0 312 387 605>
LayerCount: 2
Fore
SplineSet
85 0 m 1
 85 682 l 1
 503 682 l 1
 503 605 l 1
 169 605 l 1
 169 387 l 1
 479 387 l 1
 479 312 l 1
 169 312 l 1
 169 0 l 1
 85 0 l 1
EndSplineSet
EndChar

StartChar: G
Encoding: 71 71 21
Width: 695
Flags: MW
HStem: -13 74<327.5 443.5 327.5 472.5> 270 75<420 545 420 630> 613 78<310 443>
VStem: 50 95<245 424.5 245 462.5> 420 210<270 345 46 345> 545 85<87 270 270 270>
LayerCount: 2
Fore
SplineSet
620 663 m 1xf8
 606 586 l 1
 606 586 488 613 398 613 c 0
 222 613 145 503 145 346 c 0
 145 144 257 61 398 61 c 0
 489 61 545 87 545 87 c 1
 545 270 l 1xf4
 420 270 l 1
 420 345 l 1
 630 345 l 1
 630 46 l 1
 630 46 547 -13 398 -13 c 0
 218 -13 50 61 50 347 c 0
 50 578 206 691 389 691 c 0
 510 691 620 663 620 663 c 1xf8
EndSplineSet
EndChar

StartChar: H
Encoding: 72 72 22
Width: 683
Flags: MW
HStem: 312 75<169 514 169 514>
VStem: 85 84<0 312 387 682> 514 84<0 312 312 312 387 682 0 682>
LayerCount: 2
Fore
SplineSet
85 0 m 1
 85 682 l 1
 169 682 l 1
 169 387 l 1
 514 387 l 1
 514 682 l 1
 598 682 l 1
 598 0 l 1
 514 0 l 1
 514 312 l 1
 169 312 l 1
 169 0 l 1
 85 0 l 1
EndSplineSet
EndChar

StartChar: I
Encoding: 73 73 23
Width: 254
Flags: MW
VStem: 85 84<0 682 0 682>
LayerCount: 2
Fore
SplineSet
85 0 m 1
 85 682 l 1
 169 682 l 1
 169 0 l 1
 85 0 l 1
EndSplineSet
EndChar

StartChar: Icircumflex
Encoding: 206 206 25
Width: 254
Flags: MW
VStem: 85 84<0 682 0 682>
LayerCount: 2
Fore
SplineSet
85 0 m 1
 85 682 l 1
 169 682 l 1
 169 0 l 1
 85 0 l 1
-29 802 m 1
 106 939 l 1
 146 939 l 1
 281 802 l 1
 241 769 l 1
 126 866 l 1
 11 769 l 1
 -29 802 l 1
EndSplineSet
EndChar

StartChar: Igrave
Encoding: 204 204 27
Width: 254
Flags: MW
VStem: 85 84<0 682 0 682 0 682 0 682>
LayerCount: 2
Fore
SplineSet
85 0 m 1
 85 682 l 1
 169 682 l 1
 169 0 l 1
 85 0 l 1
174 768 m 1
 -16 877 l 1
 36 938 l 1
 208 813 l 1
 174 768 l 1
85 0 m 1
 85 682 l 1
 169 682 l 1
 169 0 l 1
 85 0 l 1
174 768 m 1
 -16 877 l 1
 36 938 l 1
 208 813 l 1
 174 768 l 1
EndSplineSet
EndChar

StartChar: J
Encoding: 74 74 28
Width: 330
Flags: MW
VStem: 161 84<214 682>
LayerCount: 2
Fore
SplineSet
161 682 m 1
 245 682 l 1
 245 213 l 2
 245 135 235 79 192 46 c 0
 161 22 115 -3 36 -13 c 1
 25 58 l 1
 151 80 161 120 161 214 c 2
 161 682 l 1
EndSplineSet
EndChar

StartChar: K
Encoding: 75 75 29
Width: 630
Flags: MW
VStem: 85 84<0 256 367 682>
LayerCount: 2
Fore
SplineSet
85 0 m 1
 85 682 l 1
 169 682 l 1
 169 367 l 1
 455 682 l 1
 560 682 l 1
 298 396 l 1
 600 0 l 1
 495 0 l 1
 240 334 l 1
 169 256 l 1
 169 0 l 1
 85 0 l 1
EndSplineSet
EndChar

StartChar: L
Encoding: 76 76 30
Width: 514
Flags: MW
HStem: 0 80<169 479 169 479>
VStem: 85 84<80 682 80 682 80 682>
LayerCount: 2
Fore
SplineSet
85 0 m 1
 85 682 l 1
 169 682 l 1
 169 80 l 1
 479 80 l 1
 479 0 l 1
 85 0 l 1
EndSplineSet
EndChar

StartChar: Lslash
Encoding: 321 321 31
Width: 580
Flags: MW
HStem: 0 80<249 560 249 560>
VStem: 166 83<80 321 321 321 441 682>
LayerCount: 2
Fore
SplineSet
166 682 m 1
 249 682 l 1
 249 441 l 1
 366 497 l 1
 397 428 l 1
 249 358 l 1
 249 80 l 1
 560 80 l 1
 560 0 l 1
 166 0 l 1
 166 321 l 1
 51 267 l 1
 20 336 l 1
 166 404 l 1
 166 682 l 1
EndSplineSet
EndChar

StartChar: M
Encoding: 77 77 32
Width: 875
Flags: MW
VStem: 98 77 701 76
LayerCount: 2
Fore
SplineSet
80 0 m 1
 116 682 l 1
 223 682 l 1
 377 276 l 2
 412 183 437 111 437 111 c 1
 439 111 l 1
 439 111 461 184 496 276 c 2
 653 682 l 1
 760 682 l 1
 795 0 l 1
 710 0 l 1
 693 375 l 2
 687 505 689 556 689 556 c 1
 687 556 l 1
 687 556 670 506 621 375 c 2
 480 0 l 1
 395 0 l 1
 253 375 l 2
 204 504 188 556 188 556 c 1
 186 556 l 1
 186 556 192 505 185 375 c 2
 165 0 l 1
 80 0 l 1
EndSplineSet
EndChar

StartChar: N
Encoding: 78 78 33
Width: 694
Flags: MW
VStem: 90 80<0 341 0 682> 524 80<0 682 342 682 0 682>
LayerCount: 2
Fore
SplineSet
90 0 m 1
 90 682 l 1
 170 682 l 1
 528 141 l 1
 530 141 l 1
 530 141 524 240 524 342 c 2
 524 682 l 1
 604 682 l 1
 604 0 l 1
 524 0 l 1
 166 543 l 1
 164 543 l 1
 164 543 170 443 170 341 c 2
 170 0 l 1
 90 0 l 1
EndSplineSet
EndChar

StartChar: O
Encoding: 79 79 35
Width: 758
Flags: MW
HStem: -13 80<305 445 305 454> 611 80<313 453>
VStem: 50 95<256 435 256 470.5> 613 95<246 426>
LayerCount: 2
Fore
SplineSet
50 341 m 0
 50 600 229 691 379 691 c 0
 529 691 708 620 708 340 c 0
 708 80 529 -13 379 -13 c 0
 229 -13 50 74 50 341 c 0
613 336 m 0
 613 516 523 611 383 611 c 0
 243 611 145 524 145 346 c 0
 145 166 235 67 375 67 c 0
 515 67 613 156 613 336 c 0
EndSplineSet
EndChar

StartChar: OE
Encoding: 338 338 36
Width: 926
Flags: MW
HStem: 0 77<307.5 433 407 433 517 861> 312 75<517 827 517 827> 605 77<325.5 851 407 433 517 517 517 851>
VStem: 50 90<245.5 433.5 245.5 459.5> 433 84<77 312 387 605>
LayerCount: 2
Fore
SplineSet
433 77 m 1
 433 605 l 1
 407 605 l 2
 244 605 140 524 140 343 c 0
 140 148 260 77 407 77 c 2
 433 77 l 1
861 0 m 1
 407 0 l 2
 208 0 50 109 50 343 c 0
 50 576 192 682 407 682 c 2
 851 682 l 1
 851 605 l 1
 517 605 l 1
 517 387 l 1
 827 387 l 1
 827 312 l 1
 517 312 l 1
 517 77 l 1
 861 77 l 1
 861 0 l 1
EndSplineSet
EndChar

StartChar: Ocircumflex
Encoding: 212 212 38
Width: 758
Flags: MW
HStem: -13 80<305 445 305 454> 611 80<313 453>
VStem: 50 95<256 435 256 470.5> 613 95<246 426>
LayerCount: 2
Fore
SplineSet
50 341 m 0
 50 600 229 691 379 691 c 0
 529 691 708 620 708 340 c 0
 708 80 529 -13 379 -13 c 0
 229 -13 50 74 50 341 c 0
613 336 m 0
 613 516 523 611 383 611 c 0
 243 611 145 524 145 346 c 0
 145 166 235 67 375 67 c 0
 515 67 613 156 613 336 c 0
238 803 m 1
 373 940 l 1
 413 940 l 1
 548 803 l 1
 508 770 l 1
 393 867 l 1
 278 770 l 1
 238 803 l 1
EndSplineSet
EndChar

StartChar: Ograve
Encoding: 210 210 40
Width: 758
Flags: MW
HStem: -13 80<305 445 305 454> 611 80<313 453>
VStem: 50 95<256 435 256 470.5> 613 95<246 426>
LayerCount: 2
Fore
SplineSet
50 341 m 0
 50 600 229 691 379 691 c 0
 529 691 708 620 708 340 c 0
 708 80 529 -13 379 -13 c 0
 229 -13 50 74 50 341 c 0
613 336 m 0
 613 516 523 611 383 611 c 0
 243 611 145 524 145 346 c 0
 145 166 235 67 375 67 c 0
 515 67 613 156 613 336 c 0
455 768 m 1
 265 877 l 1
 317 938 l 1
 489 813 l 1
 455 768 l 1
EndSplineSet
EndChar

StartChar: Oslash
Encoding: 216 216 41
Width: 758
Flags: MW
HStem: -13 80<348.5 445 348.5 454> 611 80<313 412>
VStem: 50 95<307.5 435 307.5 470.5> 613 95<246 371>
LayerCount: 2
Fore
SplineSet
51 -6 m 1
 131 90 l 1
 82 146 50 227 50 341 c 0
 50 600 229 691 379 691 c 0
 448 691 524 676 585 631 c 1
 653 712 l 1
 707 667 l 1
 636 583 l 1
 680 529 708 451 708 340 c 0
 708 80 529 -13 379 -13 c 0
 314 -13 243 3 184 44 c 1
 105 -51 l 1
 51 -6 l 1
145 346 m 0
 145 269 161 207 191 161 c 1
 528 563 l 1
 490 594 441 611 383 611 c 0
 243 611 145 524 145 346 c 0
613 336 m 0
 613 406 599 464 574 508 c 1
 239 109 l 1
 275 81 322 67 375 67 c 0
 515 67 613 156 613 336 c 0
EndSplineSet
EndChar

StartChar: P
Encoding: 80 80 43
Width: 547
Flags: MW
HStem: 271 75<169 261 261 268 169 261> 607 75<169 169 169 231>
VStem: 85 84<0 271 0 346 346 607> 412 85<429.5 536.5>
LayerCount: 2
Fore
SplineSet
85 0 m 1
 85 682 l 1
 242 682 l 2
 415 682 497 627 497 481 c 0
 497 322 358 271 268 271 c 2
 169 271 l 1
 169 0 l 1
 85 0 l 1
169 607 m 1
 169 346 l 1
 261 346 l 2
 351 346 412 376 412 483 c 0
 412 590 351 607 231 607 c 2
 169 607 l 1
EndSplineSet
EndChar

StartChar: Q
Encoding: 81 81 44
Width: 759
Flags: MW
HStem: -13 80<311.5 390> 611 80<313 453>
VStem: 50 95<256 435 256 470.5> 613 95<249.5 426>
LayerCount: 2
Fore
SplineSet
613 336 m 0
 613 516 523 611 383 611 c 0
 243 611 145 524 145 346 c 0
 145 166 235 67 375 67 c 0
 515 67 613 156 613 336 c 0
423 -11 m 1
 406 -13 398 -13 382 -13 c 0
 241 -13 50 61 50 341 c 0
 50 600 227 691 382 691 c 0
 533 691 708 619 708 340 c 0
 708 159 616 61 520 19 c 1
 564 -6 648 -69 699 -69 c 0
 723 -69 750 -61 773 -46 c 1
 810 -111 l 1
 779 -129 739 -149 695 -149 c 0
 633 -149 532 -83 423 -11 c 1
EndSplineSet
EndChar

StartChar: R
Encoding: 82 82 45
Width: 595
Flags: MW
HStem: 271 75<169 268 268 283 169 268> 607 75<169 252 169 169>
VStem: 85 84<0 271 0 346 346 607> 412 85<474 530.5>
LayerCount: 2
Fore
SplineSet
85 0 m 1
 85 682 l 1
 253 682 l 2
 401 682 497 637 497 488 c 0
 497 321 360 291 360 291 c 1
 360 289 l 1
 360 289 372 276 387 256 c 2
 580 0 l 1
 481 0 l 1
 283 271 l 1
 169 271 l 1
 169 0 l 1
 85 0 l 1
412 474 m 1
 412 587 354 607 252 607 c 2
 169 607 l 1
 169 346 l 1
 268 346 l 2
 371 346 410 403 412 474 c 1
EndSplineSet
EndChar

StartChar: S
Encoding: 83 83 46
Width: 575
Flags: MW
HStem: -13 80<204 297.5 204 302.5> 611 80<244 335.5>
VStem: 70 85<446 550 446 562> 425 85<126 237>
LayerCount: 2
Fore
SplineSet
471 669 m 1
 457 588 l 1
 457 588 378 611 293 611 c 0
 195 611 155 581 155 519 c 0
 155 373 510 376 510 172 c 0
 510 16 359 -13 246 -13 c 0
 141 -13 65 19 65 19 c 1
 85 100 l 1
 85 100 162 67 246 67 c 0
 349 67 425 91 425 161 c 0
 425 313 70 300 70 519 c 0
 70 605 125 691 293 691 c 0
 390 691 471 669 471 669 c 1
EndSplineSet
EndChar

StartChar: T
Encoding: 84 84 48
Width: 572
Flags: MW
HStem: 604 78<30 244 30 542 328 328 328 542>
VStem: 244 84<0 604 0 604>
LayerCount: 2
Fore
SplineSet
244 0 m 1
 244 604 l 1
 30 604 l 1
 30 682 l 1
 542 682 l 1
 542 604 l 1
 328 604 l 1
 328 0 l 1
 244 0 l 1
EndSplineSet
EndChar

StartChar: U
Encoding: 85 85 49
Width: 720
Flags: MW
HStem: -12 80<313 409 313 443>
VStem: 85 84<235 256 256 682> 551 84<256 682>
LayerCount: 2
Fore
SplineSet
85 682 m 1
 169 682 l 1
 169 256 l 2
 169 103 265 68 361 68 c 0
 457 68 551 103 551 256 c 2
 551 682 l 1
 635 682 l 1
 635 235 l 2
 635 97 526 -12 360 -12 c 0
 184 -12 85 79 85 235 c 2
 85 682 l 1
EndSplineSet
EndChar

StartChar: Ucircumflex
Encoding: 219 219 51
Width: 720
Flags: MW
HStem: -12 80<313 409 313 443> 662 20G<85 169 169 169 551 635 635 635> 921 20G<350 390 390 390>
VStem: 85 84<235 256 256 682> 551 84<256 682>
LayerCount: 2
Fore
SplineSet
85 682 m 1
 169 682 l 1
 169 256 l 2
 169 103 265 68 361 68 c 0
 457 68 551 103 551 256 c 2
 551 682 l 1
 635 682 l 1
 635 235 l 2
 635 97 526 -12 360 -12 c 0
 184 -12 85 79 85 235 c 2
 85 682 l 1
215 804 m 1
 350 941 l 1
 390 941 l 1
 525 804 l 1
 485 771 l 1
 370 868 l 1
 255 771 l 1
 215 804 l 1
EndSplineSet
EndChar

StartChar: Ugrave
Encoding: 217 217 53
Width: 720
Flags: MW
HStem: -12 80<313 409 313 443>
VStem: 85 84<235 256 256 682> 551 84<256 682>
LayerCount: 2
Fore
SplineSet
85 682 m 1
 169 682 l 1
 169 256 l 2
 169 103 265 68 361 68 c 0
 457 68 551 103 551 256 c 2
 551 682 l 1
 635 682 l 1
 635 235 l 2
 635 97 526 -12 360 -12 c 0
 184 -12 85 79 85 235 c 2
 85 682 l 1
427 768 m 1
 237 877 l 1
 289 938 l 1
 461 813 l 1
 427 768 l 1
EndSplineSet
EndChar

StartChar: V
Encoding: 86 86 54
Width: 620
Flags: W
LayerCount: 2
Fore
SplineSet
257 0 m 1
 30 682 l 1
 115 682 l 1
 311 80 l 1
 312 80 l 1
 505 682 l 1
 590 682 l 1
 363 0 l 1
 257 0 l 1
EndSplineSet
EndChar

StartChar: W
Encoding: 87 87 55
Width: 949
Flags: W
LayerCount: 2
Fore
SplineSet
188 0 m 1
 30 682 l 1
 115 682 l 1
 247 80 l 1
 248 80 l 1
 423 682 l 1
 529 682 l 1
 702 80 l 1
 703 80 l 1
 834 682 l 1
 919 682 l 1
 762 0 l 1
 656 0 l 1
 476 601 l 1
 475 601 l 1
 294 0 l 1
 188 0 l 1
EndSplineSet
EndChar

StartChar: X
Encoding: 88 88 56
Width: 582
Flags: W
LayerCount: 2
Fore
SplineSet
35 0 m 1
 232 347 l 1
 35 682 l 1
 130 682 l 1
 291 405 l 1
 451 682 l 1
 546 682 l 1
 344 339 l 1
 547 0 l 1
 450 0 l 1
 286 285 l 1
 130 0 l 1
 35 0 l 1
EndSplineSet
EndChar

StartChar: Y
Encoding: 89 89 57
Width: 581
Flags: MW
VStem: 248 85<0 248 0 248>
LayerCount: 2
Fore
SplineSet
248 0 m 1
 248 248 l 1
 30 682 l 1
 123 682 l 1
 290 351 l 1
 458 682 l 1
 551 682 l 1
 333 248 l 1
 333 0 l 1
 248 0 l 1
EndSplineSet
EndChar

StartChar: Yacute
Encoding: 221 221 58
Width: 576
Flags: MW
VStem: 243 85<0 248 0 248>
LayerCount: 2
Fore
SplineSet
243 0 m 1
 243 248 l 1
 25 682 l 1
 118 682 l 1
 285 351 l 1
 453 682 l 1
 546 682 l 1
 328 248 l 1
 328 0 l 1
 243 0 l 1
188 813 m 1
 360 938 l 1
 412 877 l 1
 222 768 l 1
 188 813 l 1
EndSplineSet
EndChar

StartChar: Ydieresis
Encoding: 376 376 59
Width: 571
Flags: MW
HStem: 759 108<184 215 355 386>
VStem: 145 111<797.5 828> 243 85<0 248 0 248> 316 111<797.5 828>
LayerCount: 2
Fore
SplineSet
243 0 m 1x20
 243 248 l 1
 25 682 l 1
 118 682 l 1
 285 351 l 1
 453 682 l 1
 546 682 l 1
 328 248 l 1
 328 0 l 1
 243 0 l 1x20
145 813 m 0xd0
 145 843 169 867 199 867 c 0
 231 867 256 843 256 813 c 0
 256 782 231 759 199 759 c 0
 169 759 145 782 145 813 c 0xd0
316 813 m 0
 316 843 340 867 370 867 c 0
 402 867 427 843 427 813 c 0
 427 782 402 759 370 759 c 0
 340 759 316 782 316 813 c 0
EndSplineSet
EndChar

StartChar: Z
Encoding: 90 90 60
Width: 620
Flags: MW
HStem: 0 80<181 561 181 561> 602 80<50 436 50 570>
LayerCount: 2
Fore
SplineSet
50 0 m 1
 50 36 l 1
 436 602 l 1
 50 602 l 1
 50 682 l 1
 570 682 l 1
 570 648 l 1
 181 80 l 1
 561 80 l 1
 561 0 l 1
 50 0 l 1
EndSplineSet
EndChar

StartChar: Zcaron
Encoding: 381 381 61
Width: 660
Flags: MW
HStem: 0 80<196 576 196 576> 602 80<65 451 65 585> 920 20G<190 190 420 420>
LayerCount: 2
Fore
SplineSet
65 0 m 1
 65 36 l 1
 451 602 l 1
 65 602 l 1
 65 682 l 1
 585 682 l 1
 585 648 l 1
 196 80 l 1
 576 80 l 1
 576 0 l 1
 65 0 l 1
285 770 m 1
 150 907 l 1
 190 940 l 1
 305 843 l 1
 420 940 l 1
 460 907 l 1
 325 770 l 1
 285 770 l 1
EndSplineSet
EndChar

StartChar: a
Encoding: 97 97 62
Width: 563
Flags: MW
HStem: -13 70<204.5 242> 443 70<255.5 335.5>
VStem: 65 85<104 154.5 104 179> 387 80<117 231 231 231 294 331>
LayerCount: 2
Fore
SplineSet
387 117 m 1
 387 231 l 1
 387 231 318 228 282 223 c 0
 186 211 150 182 150 127 c 0
 150 81 181 57 228 57 c 0
 292 57 339 81 387 117 c 1
396 -8 m 1
 386 47 l 1
 324 11 273 -13 211 -13 c 0
 122 -13 65 28 65 127 c 0
 65 231 181 279 295 288 c 0
 343 292 387 294 387 294 c 1
 387 387 383 443 288 443 c 0
 212 443 138 421 138 421 c 1
 122 490 l 1
 122 490 206 513 305 513 c 0
 440 513 467 426 467 331 c 2
 467 91 l 2
 467 55 473 0 473 0 c 1
 396 -8 l 1
EndSplineSet
EndChar

StartChar: aacute
Encoding: 225 225 63
Width: 567
Flags: MW
HStem: -13 70<204.5 242> 443 70<255.5 335.5>
VStem: 65 85<104 154.5 104 179> 387 80<117 231 231 231 294 331>
LayerCount: 2
Fore
SplineSet
387 117 m 1
 387 231 l 1
 387 231 318 228 282 223 c 0
 186 211 150 182 150 127 c 0
 150 81 181 57 228 57 c 0
 292 57 339 81 387 117 c 1
396 -8 m 1
 386 47 l 1
 324 11 273 -13 211 -13 c 0
 122 -13 65 28 65 127 c 0
 65 231 181 279 295 288 c 0
 343 292 387 294 387 294 c 1
 387 387 383 443 288 443 c 0
 212 443 138 421 138 421 c 1
 122 490 l 1
 122 490 206 513 305 513 c 0
 440 513 467 426 467 331 c 2
 467 91 l 2
 467 55 473 0 473 0 c 1
 396 -8 l 1
182 645 m 1
 354 770 l 1
 406 709 l 1
 216 600 l 1
 182 645 l 1
EndSplineSet
EndChar

StartChar: acircumflex
Encoding: 226 226 64
Width: 567
Flags: MW
HStem: -13 70<204.5 242> 443 70<255.5 335.5>
VStem: 65 85<104 154.5 104 179> 387 80<117 231 231 231 294 331>
LayerCount: 2
Fore
SplineSet
387 117 m 1
 387 231 l 1
 387 231 318 228 282 223 c 0
 186 211 150 182 150 127 c 0
 150 81 181 57 228 57 c 0
 292 57 339 81 387 117 c 1
396 -8 m 1
 386 47 l 1
 324 11 273 -13 211 -13 c 0
 122 -13 65 28 65 127 c 0
 65 231 181 279 295 288 c 0
 343 292 387 294 387 294 c 1
 387 387 383 443 288 443 c 0
 212 443 138 421 138 421 c 1
 122 490 l 1
 122 490 206 513 305 513 c 0
 440 513 467 426 467 331 c 2
 467 91 l 2
 467 55 473 0 473 0 c 1
 396 -8 l 1
135 633 m 1
 270 770 l 1
 310 770 l 1
 445 633 l 1
 405 600 l 1
 290 697 l 1
 175 600 l 1
 135 633 l 1
EndSplineSet
EndChar

StartChar: acute
Encoding: 180 180 65
Width: 424
Flags: W
LayerCount: 2
Fore
SplineSet
100 646 m 1
 272 771 l 1
 324 710 l 1
 134 601 l 1
 100 646 l 1
EndSplineSet
EndChar

StartChar: adieresis
Encoding: 228 228 66
Width: 567
Flags: MW
HStem: -13 70<204.5 242> 443 70<255.5 335.5> 593 108<189 220 360 391>
VStem: 65 85<104 154.5 104 179> 150 111<631.5 662> 321 111<631.5 662> 387 80<117 231 231 231 294 331>
LayerCount: 2
Fore
SplineSet
387 117 m 1xd2
 387 231 l 1
 387 231 318 228 282 223 c 0
 186 211 150 182 150 127 c 0
 150 81 181 57 228 57 c 0
 292 57 339 81 387 117 c 1xd2
396 -8 m 1
 386 47 l 1
 324 11 273 -13 211 -13 c 0
 122 -13 65 28 65 127 c 0
 65 231 181 279 295 288 c 0
 343 292 387 294 387 294 c 1
 387 387 383 443 288 443 c 0
 212 443 138 421 138 421 c 1
 122 490 l 1
 122 490 206 513 305 513 c 0
 440 513 467 426 467 331 c 2
 467 91 l 2
 467 55 473 0 473 0 c 1
 396 -8 l 1
150 647 m 0x2c
 150 677 174 701 204 701 c 0
 236 701 261 677 261 647 c 0
 261 616 236 593 204 593 c 0
 174 593 150 616 150 647 c 0x2c
321 647 m 0
 321 677 345 701 375 701 c 0
 407 701 432 677 432 647 c 0
 432 616 407 593 375 593 c 0
 345 593 321 616 321 647 c 0
EndSplineSet
EndChar

StartChar: ae
Encoding: 230 230 67
Width: 884
Flags: MW
HStem: -13 70<204.5 260 204.5 277 580 659.5> 231 64<469 721 469 789 465 721> 443 70<255.5 330.5 580.5 661>
VStem: 65 84<104 154.5 104 180.5>
LayerCount: 2
Fore
SplineSet
211 -13 m 0
 111 -13 65 35 65 127 c 0
 65 234 170 279 284 288 c 0
 324 291 382 296 382 296 c 1
 386 323 l 2
 397 400 373 443 288 443 c 0
 212 443 139 424 139 424 c 1
 122 495 l 1
 122 495 206 513 305 513 c 0
 380 513 422 485 444 445 c 1
 485 489 543 513 618 513 c 0
 748 513 804 404 804 275 c 1
 789 231 l 1
 465 231 l 1
 465 142 513 57 631 57 c 0
 712 57 764 79 764 79 c 1
 779 14 l 1
 779 14 703 -13 616 -13 c 0
 544 -13 483 6 432 69 c 1
 432 69 343 -13 211 -13 c 0
399 122 m 1
 383 166 379 231 379 231 c 1
 362 230 312 227 282 223 c 0
 186 211 149 182 149 127 c 0
 149 81 181 57 228 57 c 0
 292 57 351 86 399 122 c 1
469 295 m 1
 721 295 l 1
 721 314 713 443 609 443 c 0
 497 443 469 335 469 295 c 1
EndSplineSet
EndChar

StartChar: agrave
Encoding: 224 224 68
Width: 567
Flags: MW
HStem: -13 70<204.5 242> 443 70<255.5 335.5>
VStem: 65 85<104 154.5 104 179> 387 80<117 231 231 231 294 331>
LayerCount: 2
Fore
SplineSet
387 117 m 1
 387 231 l 1
 387 231 318 228 282 223 c 0
 186 211 150 182 150 127 c 0
 150 81 181 57 228 57 c 0
 292 57 339 81 387 117 c 1
396 -8 m 1
 386 47 l 1
 324 11 273 -13 211 -13 c 0
 122 -13 65 28 65 127 c 0
 65 231 181 279 295 288 c 0
 343 292 387 294 387 294 c 1
 387 387 383 443 288 443 c 0
 212 443 138 421 138 421 c 1
 122 490 l 1
 122 490 206 513 305 513 c 0
 440 513 467 426 467 331 c 2
 467 91 l 2
 467 55 473 0 473 0 c 1
 396 -8 l 1
354 601 m 1
 164 710 l 1
 216 771 l 1
 388 646 l 1
 354 601 l 1
EndSplineSet
EndChar

StartChar: ampersand
Encoding: 38 38 69
Width: 731
Flags: MW
HStem: -13 70<226.5 308 226.5 322> 682 70<277 355>
VStem: 65 80<134.5 199.5 134.5 221> 122 80<564 622.5 564 633.5> 418 80<560 622>
LayerCount: 2
Fore
SplineSet
663 -21 m 1xd8
 617 15 569 55 521 98 c 1
 459 33 376 -13 268 -13 c 0
 151 -13 65 45 65 162 c 0xe8
 65 280 171 344 234 385 c 1
 185 444 122 505 122 596 c 0
 122 671 174 752 314 752 c 0
 459 752 498 681 498 596 c 0
 498 501 408 421 339 376 c 1
 402 308 459 252 512 203 c 1
 548 256 575 317 593 373 c 1
 659 351 l 1
 641 289 611 217 566 154 c 1
 615 110 661 70 707 28 c 1
 663 -21 l 1xd8
268 57 m 0
 348 57 414 93 466 147 c 1
 400 207 335 271 279 334 c 1
 213 288 145 240 145 159 c 0
 145 110 185 57 268 57 c 0
202 596 m 0xd8
 202 532 233 495 297 421 c 1
 360 464 418 526 418 594 c 0
 418 650 396 682 314 682 c 0
 240 682 202 649 202 596 c 0xd8
EndSplineSet
EndChar

StartChar: approxequal
Encoding: 8776 8776 70
Width: 673
Flags: W
LayerCount: 2
Fore
SplineSet
523 405 m 1
 557 345 l 1
 526 320 492 298 440 298 c 0
 358 298 311 345 231 345 c 0
 196 345 174 329 131 306 c 1
 100 366 l 1
 131 387 180 415 231 415 c 0
 311 415 358 368 440 368 c 0
 470 368 503 391 523 405 c 1
542 257 m 1
 573 198 l 1
 542 173 511 150 459 150 c 0
 377 150 330 197 250 197 c 0
 215 197 194 182 150 158 c 1
 119 218 l 1
 150 239 199 267 250 267 c 0
 330 267 377 220 459 220 c 0
 489 220 522 243 542 257 c 1
EndSplineSet
EndChar

StartChar: aring
Encoding: 229 229 71
Width: 567
Flags: MW
HStem: -13 70<204.5 242> 443 70<255.5 335.5> 582 51<280 312 280 325> 748 51<280 312>
VStem: 65 85<104 154.5 104 179> 188 51<674 706 674 721> 354 51<674 706> 387 80<117 231 231 231 294 331>
LayerCount: 2
Fore
SplineSet
387 117 m 1xc9
 387 231 l 1
 387 231 318 228 282 223 c 0
 186 211 150 182 150 127 c 0
 150 81 181 57 228 57 c 0
 292 57 339 81 387 117 c 1xc9
396 -8 m 1
 386 47 l 1
 324 11 273 -13 211 -13 c 0
 122 -13 65 28 65 127 c 0
 65 231 181 279 295 288 c 0
 343 292 387 294 387 294 c 1
 387 387 383 443 288 443 c 0
 212 443 138 421 138 421 c 1
 122 490 l 1
 122 490 206 513 305 513 c 0
 440 513 467 426 467 331 c 2
 467 91 l 2
 467 55 473 0 473 0 c 1
 396 -8 l 1
188 690 m 0x36
 188 752 234 799 294 799 c 0
 356 799 405 752 405 690 c 0
 405 630 356 582 294 582 c 0
 234 582 188 630 188 690 c 0x36
239 690 m 0
 239 658 264 633 296 633 c 0
 328 633 354 658 354 690 c 0
 354 722 328 748 296 748 c 0
 264 748 239 722 239 690 c 0
EndSplineSet
EndChar

StartChar: asciicircum
Encoding: 94 94 72
Width: 666
Flags: W
LayerCount: 2
Fore
SplineSet
100 432 m 1
 335 745 l 1
 566 432 l 1
 481 432 l 1
 335 637 l 1
 189 432 l 1
 100 432 l 1
EndSplineSet
EndChar

StartChar: asciitilde
Encoding: 126 126 73
Width: 658
Flags: W
LayerCount: 2
Fore
SplineSet
524 338 m 1
 560 282 l 1
 529 257 494 228 442 228 c 0
 360 228 313 285 233 285 c 0
 203 285 180 270 135 242 c 1
 101 299 l 1
 135 323 182 355 233 355 c 0
 313 355 360 298 442 298 c 0
 472 298 505 323 524 338 c 1
EndSplineSet
EndChar

StartChar: asterisk
Encoding: 42 42 74
Width: 582
Flags: W
LayerCount: 2
Fore
SplineSet
477 446 m 1
 362 410 l 1
 436 315 l 1
 372 267 l 1
 300 371 l 1
 230 265 l 1
 164 311 l 1
 240 411 l 1
 125 451 l 1
 151 526 l 1
 265 479 l 1
 262 600 l 1
 342 600 l 1
 338 479 l 1
 450 521 l 1
 477 446 l 1
EndSplineSet
EndChar

StartChar: at
Encoding: 64 64 75
Width: 904
Flags: MW
HStem: -68 68<338.5 468> 120 75<598 640.5 598 658.5> 445 68<439 488.5> 621 70<391.5 565>
VStem: 75 70<181.5 390.5 181.5 411> 257 79<246.5 324 246.5 324> 759 70<311.5 462>
LayerCount: 2
Fore
SplineSet
535 438 m 1
 535 438 505 445 472 445 c 0
 406 445 336 387 336 261 c 0
 336 232 344 192 362 192 c 0
 383 192 513 316 525 384 c 2
 535 438 l 1
617 497 m 1
 587 297 l 2
 580 251 594 195 602 195 c 0
 679 195 759 250 759 373 c 0
 759 551 654 621 476 621 c 0
 307 621 145 500 145 281 c 0
 145 82 241 0 436 0 c 0
 530 0 586 28 586 28 c 1
 606 -38 l 1
 606 -38 524 -68 412 -68 c 0
 202 -68 75 41 75 281 c 0
 75 541 267 691 476 691 c 0
 685 691 829 606 829 373 c 0
 829 245 754 120 563 120 c 0
 552 120 523 166 525 266 c 1
 523 266 l 1
 453 177 396 125 344 125 c 0
 285 125 257 174 257 245 c 0
 257 403 356 513 494 513 c 0
 531 513 617 497 617 497 c 1
EndSplineSet
EndChar

StartChar: atilde
Encoding: 227 227 76
Width: 567
Flags: MW
HStem: -13 70<204.5 242> 443 70<255.5 335.5>
VStem: 65 85<104 154.5 104 179> 387 80<117 231 231 231 294 331>
LayerCount: 2
Fore
SplineSet
387 117 m 1
 387 231 l 1
 387 231 318 228 282 223 c 0
 186 211 150 182 150 127 c 0
 150 81 181 57 228 57 c 0
 292 57 339 81 387 117 c 1
396 -8 m 1
 386 47 l 1
 324 11 273 -13 211 -13 c 0
 122 -13 65 28 65 127 c 0
 65 231 181 279 295 288 c 0
 343 292 387 294 387 294 c 1
 387 387 383 443 288 443 c 0
 212 443 138 421 138 421 c 1
 122 490 l 1
 122 490 206 513 305 513 c 0
 440 513 467 426 467 331 c 2
 467 91 l 2
 467 55 473 0 473 0 c 1
 396 -8 l 1
412 704 m 1
 466 663 l 1
 430 618 396 600 363 600 c 0
 297 600 260 640 227 640 c 0
 201 640 181 626 164 603 c 1
 112 647 l 1
 146 694 187 705 223 705 c 0
 280 705 318 665 352 665 c 0
 383 665 399 685 412 704 c 1
EndSplineSet
EndChar

StartChar: b
Encoding: 98 98 77
Width: 597
Flags: MW
HStem: -13 70<252 340 252 340> 443 70<288.5 354>
VStem: 100 80<74 388 460 749 749 749> 437 85<189 295>
LayerCount: 2
Fore
SplineSet
100 30 m 1
 100 749 l 1
 180 758 l 1
 180 460 l 1
 180 460 256 513 321 513 c 0
 431 513 522 430 522 252 c 0
 522 56 402 -13 278 -13 c 0
 156 -13 100 30 100 30 c 1
180 388 m 1
 180 74 l 1
 180 74 226 57 278 57 c 0
 402 57 437 130 437 248 c 0
 437 342 396 443 312 443 c 0
 257 443 180 388 180 388 c 1
EndSplineSet
EndChar

StartChar: backslash
Encoding: 92 92 78
Width: 576
Flags: W
LayerCount: 2
Fore
SplineSet
438 -208 m 1
 63 823 l 1
 138 849 l 1
 513 -182 l 1
 438 -208 l 1
EndSplineSet
EndChar

StartChar: bar
Encoding: 124 124 79
Width: 280
Flags: MW
VStem: 100 80<-228 758 -228 758>
LayerCount: 2
Fore
SplineSet
100 -228 m 1
 100 758 l 1
 180 758 l 1
 180 -228 l 1
 100 -228 l 1
EndSplineSet
EndChar

StartChar: braceleft
Encoding: 123 123 80
Width: 395
Flags: MW
VStem: 166 79<-90.5 -27.5 -90.5 -27.5 612.5 675.5>
LayerCount: 2
Fore
SplineSet
173 130 m 0
 173 213 120 233 80 250 c 1
 80 325 l 1
 132 346 173 360 173 455 c 0
 173 530 166 568 166 657 c 0
 166 748 275 787 341 802 c 1
 355 732 l 1
 355 732 245 711 245 640 c 0
 245 585 252 533 252 449 c 0
 252 369 233 305 169 287 c 1
 233 269 252 216 252 136 c 0
 252 52 245 0 245 -55 c 0
 245 -126 355 -147 355 -147 c 1
 341 -217 l 1
 275 -202 166 -163 166 -72 c 0
 166 17 173 55 173 130 c 0
EndSplineSet
EndChar

StartChar: braceright
Encoding: 125 125 81
Width: 395
Flags: MW
VStem: 150 72
LayerCount: 2
Fore
SplineSet
222 130 m 0
 222 55 229 17 229 -72 c 0
 229 -163 120 -202 54 -217 c 1
 40 -147 l 1
 40 -147 150 -126 150 -55 c 0
 150 0 143 52 143 136 c 0
 143 216 162 269 226 287 c 1
 162 305 143 369 143 449 c 0
 143 533 150 585 150 640 c 0
 150 711 40 732 40 732 c 1
 54 802 l 1
 120 787 229 748 229 657 c 0
 229 568 222 530 222 455 c 0
 222 360 263 346 315 325 c 1
 315 250 l 1
 275 233 222 213 222 130 c 0
EndSplineSet
EndChar

StartChar: bracketleft
Encoding: 91 91 82
Width: 328
Flags: MW
HStem: -252 80<185 308 185 308> 710 80<185 308 185 185>
VStem: 100 85<-172 710 -172 790 -172 790>
LayerCount: 2
Fore
SplineSet
100 -252 m 1
 100 790 l 1
 308 790 l 1
 308 710 l 1
 185 710 l 1
 185 -172 l 1
 308 -172 l 1
 308 -252 l 1
 100 -252 l 1
EndSplineSet
EndChar

StartChar: bracketright
Encoding: 93 93 83
Width: 328
Flags: MW
HStem: -252 80<20 143 20 228 20 143> 710 80<20 143 20 228>
VStem: 143 85<-172 710 710 710>
LayerCount: 2
Fore
SplineSet
228 790 m 1
 228 -252 l 1
 20 -252 l 1
 20 -172 l 1
 143 -172 l 1
 143 710 l 1
 20 710 l 1
 20 790 l 1
 228 790 l 1
EndSplineSet
EndChar

StartChar: breve
Encoding: 728 728 84
Width: 464
Flags: MW
HStem: 593 55<214 247.5 214 262>
LayerCount: 2
Fore
SplineSet
100 701 m 1
 157 701 l 1
 168 670 197 648 231 648 c 0
 264 648 294 670 306 701 c 1
 364 701 l 1
 350 640 293 593 231 593 c 0
 167 593 113 640 100 701 c 1
EndSplineSet
EndChar

StartChar: brokenbar
Encoding: 166 166 85
Width: 270
Flags: MW
VStem: 100 70<0 306 0 306 376 682>
LayerCount: 2
Fore
SplineSet
100 0 m 1
 100 306 l 1
 170 306 l 1
 170 0 l 1
 100 0 l 1
100 376 m 1
 100 682 l 1
 170 682 l 1
 170 376 l 1
 100 376 l 1
EndSplineSet
EndChar

StartChar: bullet
Encoding: 8226 8226 86
Width: 460
Flags: MW
HStem: 139 247<195 262.5>
VStem: 105 250<232 299.5>
LayerCount: 2
Fore
SplineSet
105 267 m 0
 105 332 161 386 229 386 c 0
 296 386 355 332 355 267 c 0
 355 197 296 139 229 139 c 0
 161 139 105 197 105 267 c 0
EndSplineSet
EndChar

StartChar: c
Encoding: 99 99 87
Width: 500
Flags: MW
HStem: -13 70<275 343> 443 70<246.5 332>
VStem: 75 85<179.5 292 179.5 343>
LayerCount: 2
Fore
SplineSet
430 497 m 1
 414 430 l 1
 414 430 358 443 306 443 c 0
 186 443 160 336 160 248 c 0
 160 111 234 57 316 57 c 0
 373 57 424 74 424 74 c 1
 440 7 l 1
 440 7 380 -13 306 -13 c 0
 160 -13 75 57 75 249 c 0
 75 437 187 513 306 513 c 0
 371 513 430 497 430 497 c 1
EndSplineSet
EndChar

StartChar: caron
Encoding: 711 711 88
Width: 510
Flags: W
LayerCount: 2
Fore
SplineSet
235 593 m 1
 100 730 l 1
 140 763 l 1
 255 666 l 1
 370 763 l 1
 410 730 l 1
 275 593 l 1
 235 593 l 1
EndSplineSet
EndChar

StartChar: cedilla
Encoding: 184 184 90
Width: 331
Flags: W
LayerCount: 2
Fore
SplineSet
152 -83 m 2
 152 -59 l 1
 231 -59 l 1
 231 -83 l 2
 231 -130 223 -172 157 -244 c 1
 100 -197 l 1
 152 -141 152 -108 152 -83 c 2
EndSplineSet
EndChar

StartChar: cent
Encoding: 162 162 91
Width: 518
Flags: MW
HStem: 102 69<250 250>
VStem: 75 85<273.5 366 273.5 403> 250 80<-20 102 102 102 565 682>
LayerCount: 2
Fore
SplineSet
250 -20 m 1
 250 102 l 1
 134 109 75 166 75 333 c 0
 75 473 158 552 250 565 c 1
 250 682 l 1
 330 682 l 1
 330 564 l 1
 386 557 431 544 431 544 c 1
 415 477 l 1
 415 477 348 498 276 498 c 0
 166 498 160 400 160 332 c 0
 160 215 191 171 293 171 c 0
 360 171 422 195 422 195 c 1
 438 128 l 1
 409 116 368 108 330 104 c 1
 330 -20 l 1
 250 -20 l 1
EndSplineSet
EndChar

StartChar: circumflex
Encoding: 710 710 92
Width: 510
Flags: W
LayerCount: 2
Fore
SplineSet
100 633 m 1
 235 770 l 1
 275 770 l 1
 410 633 l 1
 370 600 l 1
 255 697 l 1
 140 600 l 1
 100 633 l 1
EndSplineSet
EndChar

StartChar: colon
Encoding: 58 58 93
Width: 341
Flags: MW
HStem: 0 118<162.5 196> 335 118<162.5 196>
VStem: 120 121<42.5 75 377.5 410>
LayerCount: 2
Fore
SplineSet
120 59 m 0
 120 91 146 118 179 118 c 0
 213 118 241 91 241 59 c 0
 241 26 213 0 179 0 c 0
 146 0 120 26 120 59 c 0
120 394 m 0
 120 426 146 453 179 453 c 0
 213 453 241 426 241 394 c 0
 241 361 213 335 179 335 c 0
 146 335 120 361 120 394 c 0
EndSplineSet
EndChar

StartChar: comma
Encoding: 44 44 94
Width: 329
Flags: W
LayerCount: 2
Fore
SplineSet
105 -116 m 1
 139 130 l 1
 224 130 l 1
 168 -128 l 1
 105 -116 l 1
EndSplineSet
EndChar

StartChar: copyright
Encoding: 169 169 95
Width: 831
Flags: MW
HStem: 1 57<337.5 493.5 337.5 509> 142 63<398 445> 482 62<375.5 437> 624 58<337.5 493.5>
VStem: 75 57<263.5 419.5 263.5 435> 240 75<294.5 371 294.5 417.5> 698 58<263.5 419.5>
LayerCount: 2
Fore
SplineSet
75 341 m 0
 75 529 227 682 415 682 c 0
 603 682 756 529 756 341 c 0
 756 153 603 1 415 1 c 0
 227 1 75 153 75 341 c 0
132 341 m 0
 132 186 260 58 415 58 c 0
 572 58 698 186 698 341 c 0
 698 498 572 624 415 624 c 0
 260 624 132 498 132 341 c 0
514 531 m 1
 500 472 l 1
 500 472 457 482 417 482 c 0
 334 482 315 400 315 342 c 0
 315 247 371 205 425 205 c 0
 467 205 507 219 507 219 c 1
 519 160 l 1
 519 160 473 142 417 142 c 0
 315 142 240 190 240 343 c 0
 240 492 330 544 417 544 c 0
 466 544 514 531 514 531 c 1
EndSplineSet
EndChar

StartChar: d
Encoding: 100 100 96
Width: 596
Flags: MW
HStem: -13 70<243 308.5> 443 70<271 343 271 347>
VStem: 75 85<205 304 205 349.5> 416 80<110 428 428 428 498 749 749 749>
LayerCount: 2
Fore
SplineSet
416 110 m 1
 416 428 l 1
 416 428 375 443 319 443 c 0
 208 443 160 356 160 252 c 0
 160 158 201 57 285 57 c 0
 344 57 416 110 416 110 c 1
425 -8 m 1
 417 40 l 1
 417 40 341 -13 276 -13 c 0
 151 -13 75 79 75 248 c 0
 75 451 223 513 319 513 c 0
 367 513 416 498 416 498 c 1
 416 749 l 1
 496 758 l 1
 496 91 l 2
 496 55 502 0 502 0 c 1
 425 -8 l 1
EndSplineSet
EndChar

StartChar: dagger
Encoding: 8224 8224 97
Width: 550
Flags: MW
HStem: 513 70<100 230 100 230 310 450>
VStem: 230 80<0 513 0 513 583 749 749 749>
LayerCount: 2
Fore
SplineSet
230 0 m 1
 230 513 l 1
 100 513 l 1
 100 583 l 1
 230 583 l 1
 230 749 l 1
 310 758 l 1
 310 583 l 1
 450 583 l 1
 450 513 l 1
 310 513 l 1
 310 0 l 1
 230 0 l 1
EndSplineSet
EndChar

StartChar: daggerdbl
Encoding: 8225 8225 98
Width: 550
Flags: MW
HStem: 201 70<100 230 100 230 310 450> 513 70<100 230 100 230 310 450>
VStem: 230 80<0 201 0 201 271 346 394 513 583 749 749 749>
LayerCount: 2
Fore
SplineSet
100 513 m 1
 100 583 l 1
 230 583 l 1
 230 749 l 1
 310 758 l 1
 310 583 l 1
 450 583 l 1
 450 513 l 1
 310 513 l 1
 310 394 l 1
 230 394 l 1
 230 513 l 1
 100 513 l 1
100 201 m 1
 100 271 l 1
 230 271 l 1
 230 346 l 1
 310 346 l 1
 310 271 l 1
 450 271 l 1
 450 201 l 1
 310 201 l 1
 310 0 l 1
 230 0 l 1
 230 201 l 1
 100 201 l 1
EndSplineSet
EndChar

StartChar: degree
Encoding: 176 176 99
Width: 470
Flags: MW
HStem: 491 60<212.5 255.5 212.5 270> 699 59<212.5 255.5>
VStem: 100 64<605 648 605 663> 306 64<605 648>
LayerCount: 2
Fore
SplineSet
100 627 m 0
 100 699 161 758 234 758 c 0
 306 758 370 699 370 627 c 0
 370 554 306 491 234 491 c 0
 161 491 100 554 100 627 c 0
164 627 m 0
 164 583 191 551 234 551 c 0
 277 551 306 583 306 627 c 0
 306 669 277 699 234 699 c 0
 191 699 164 669 164 627 c 0
EndSplineSet
EndChar

StartChar: dieresis
Encoding: 168 168 100
Width: 482
Flags: MW
HStem: 593 108<139 170 310 341>
VStem: 100 111<631.5 662> 271 111<631.5 662>
LayerCount: 2
Fore
SplineSet
100 647 m 0
 100 677 124 701 154 701 c 0
 186 701 211 677 211 647 c 0
 211 616 186 593 154 593 c 0
 124 593 100 616 100 647 c 0
271 647 m 0
 271 677 295 701 325 701 c 0
 357 701 382 677 382 647 c 0
 382 616 357 593 325 593 c 0
 295 593 271 616 271 647 c 0
EndSplineSet
EndChar

StartChar: divide
Encoding: 247 247 101
Width: 640
Flags: W
LayerCount: 2
Fore
SplineSet
100 243 m 1
 100 323 l 1
 540 323 l 1
 540 243 l 1
 100 243 l 1
320 395 m 0
 287 395 261 420 261 453 c 0
 261 488 287 513 320 513 c 0
 354 513 379 488 379 453 c 0
 379 420 354 395 320 395 c 0
320 53 m 0
 287 53 261 78 261 111 c 0
 261 146 287 171 320 171 c 0
 354 171 379 146 379 111 c 0
 379 78 354 53 320 53 c 0
EndSplineSet
EndChar

StartChar: dollar
Encoding: 36 36 102
Width: 565
Flags: MW
HStem: -101 168<244 244 244 292.5 199 314> -13 80<199 241 241 244> 611 79<314 314 314 330.5> 611 171<244 314 244 330.5>
VStem: 65 85<448.5 551 448.5 562.5> 244 70<-101 -13 -13 -13 690 782> 420 85<124 235>
LayerCount: 2
Fore
SplineSet
244 -101 m 1xae
 244 -13 l 1
 241 -13 l 2
 136 -13 60 19 60 19 c 1
 80 100 l 1
 80 100 157 67 241 67 c 0
 344 67 420 87 420 161 c 0
 420 309 65 305 65 519 c 0
 65 606 134 675 244 689 c 1
 244 782 l 1
 314 782 l 1x5e
 314 690 l 1
 398 687 462 671 462 671 c 1
 452 588 l 1
 452 588 373 611 288 611 c 0
 190 611 150 583 150 519 c 0
 150 378 505 373 505 172 c 0
 505 51 409 12 314 -8 c 1
 314 -101 l 1
 244 -101 l 1xae
EndSplineSet
EndChar

StartChar: dotaccent
Encoding: 729 729 103
Width: 311
Flags: MW
HStem: 593 108<139 170>
VStem: 100 111<631.5 662>
LayerCount: 2
Fore
SplineSet
100 647 m 0
 100 677 124 701 154 701 c 0
 186 701 211 677 211 647 c 0
 211 616 186 593 154 593 c 0
 124 593 100 616 100 647 c 0
EndSplineSet
EndChar

StartChar: dotlessi
Encoding: 305 305 104
Width: 280
Flags: MW
VStem: 100 80<0 504 504 504>
LayerCount: 2
Fore
SplineSet
100 0 m 1
 100 504 l 1
 180 513 l 1
 180 0 l 1
 100 0 l 1
EndSplineSet
EndChar

StartChar: e
Encoding: 101 101 105
Width: 580
Flags: MW
HStem: -13 70<264.5 355.5> 231 64<165 417 165 485 162 417> 443 70<249 357>
VStem: 75 87<189.5 231 189.5 335>
LayerCount: 2
Fore
SplineSet
460 79 m 1
 475 12 l 1
 475 12 399 -13 312 -13 c 0
 179 -13 75 57 75 248 c 0
 75 422 177 513 309 513 c 0
 439 513 500 404 500 275 c 1
 485 231 l 1
 162 231 l 1
 162 148 202 57 327 57 c 0
 408 57 460 79 460 79 c 1
165 295 m 1
 417 295 l 1
 417 314 409 443 305 443 c 0
 193 443 165 335 165 295 c 1
EndSplineSet
EndChar

StartChar: ecircumflex
Encoding: 234 234 107
Width: 580
Flags: MW
HStem: -13 70<264.5 355.5> 231 64<165 417 165 485 162 417> 443 70<249 357>
VStem: 75 87<189.5 231 189.5 335>
LayerCount: 2
Fore
SplineSet
460 79 m 1
 475 12 l 1
 475 12 399 -13 312 -13 c 0
 179 -13 75 57 75 248 c 0
 75 422 177 513 309 513 c 0
 439 513 500 404 500 275 c 1
 485 231 l 1
 162 231 l 1
 162 148 202 57 327 57 c 0
 408 57 460 79 460 79 c 1
165 295 m 1
 417 295 l 1
 417 314 409 443 305 443 c 0
 193 443 165 335 165 295 c 1
147 633 m 1
 282 770 l 1
 322 770 l 1
 457 633 l 1
 417 600 l 1
 302 697 l 1
 187 600 l 1
 147 633 l 1
EndSplineSet
EndChar

StartChar: egrave
Encoding: 232 232 109
Width: 580
Flags: MW
HStem: -13 70<264.5 355.5> 231 64<165 417 165 485 162 417> 443 70<249 357>
VStem: 75 87<189.5 231 189.5 335>
LayerCount: 2
Fore
SplineSet
460 79 m 1
 475 12 l 1
 475 12 399 -13 312 -13 c 0
 179 -13 75 57 75 248 c 0
 75 422 177 513 309 513 c 0
 439 513 500 404 500 275 c 1
 485 231 l 1
 162 231 l 1
 162 148 202 57 327 57 c 0
 408 57 460 79 460 79 c 1
165 295 m 1
 417 295 l 1
 417 314 409 443 305 443 c 0
 193 443 165 335 165 295 c 1
362 601 m 1
 172 710 l 1
 224 771 l 1
 396 646 l 1
 362 601 l 1
EndSplineSet
EndChar

StartChar: eight
Encoding: 56 56 110
Width: 586
Flags: MW
HStem: -13 70<245.5 332.5 245.5 346> 621 70<255.5 336>
VStem: 75 85<139.5 212 139.5 222.5> 95 85<475.5 537 474.5 572> 406 85<477 538.5> 426 85<138.5 211.5>
LayerCount: 2
Fore
SplineSet
288 -13 m 0xe4
 172 -13 75 35 75 173 c 0xe8
 75 272 152 328 200 359 c 1
 137 393 95 441 95 510 c 0
 95 634 200 691 293 691 c 0
 410 691 491 622 491 510 c 0xd8
 491 440 443 384 394 344 c 1
 452 313 511 273 511 173 c 0
 511 32 404 -13 288 -13 c 0xe4
329 376 m 1
 365 407 406 444 406 510 c 0
 406 567 379 621 293 621 c 0
 218 621 180 564 180 510 c 0xd8
 180 439 246 409 329 376 c 1
160 173 m 0xe4
 160 106 202 57 289 57 c 0
 376 57 426 104 426 173 c 0
 426 250 363 280 262 323 c 1
 211 290 160 251 160 173 c 0xe4
EndSplineSet
EndChar

StartChar: ellipsis
Encoding: 8230 8230 111
Width: 763
Flags: MW
HStem: 0 108<134 165 365 396 596 627>
VStem: 95 111<38.5 69> 326 111<38.5 69> 557 111<38.5 69>
CounterMasks: 1 70
LayerCount: 2
Fore
SplineSet
95 54 m 0
 95 84 119 108 149 108 c 0
 181 108 206 84 206 54 c 0
 206 23 181 0 149 0 c 0
 119 0 95 23 95 54 c 0
326 54 m 0
 326 84 350 108 380 108 c 0
 412 108 437 84 437 54 c 0
 437 23 412 0 380 0 c 0
 350 0 326 23 326 54 c 0
557 54 m 0
 557 84 581 108 611 108 c 0
 643 108 668 84 668 54 c 0
 668 23 643 0 611 0 c 0
 581 0 557 23 557 54 c 0
EndSplineSet
EndChar

StartChar: emdash
Encoding: 8212 8212 112
Width: 770
Flags: MW
HStem: 214 80<50 720 50 720>
LayerCount: 2
Fore
SplineSet
50 214 m 1
 50 294 l 1
 720 294 l 1
 720 214 l 1
 50 214 l 1
EndSplineSet
EndChar

StartChar: endash
Encoding: 8211 8211 113
Width: 640
Flags: MW
HStem: 214 80<100 540 100 540>
LayerCount: 2
Fore
SplineSet
100 214 m 1
 100 294 l 1
 540 294 l 1
 540 214 l 1
 100 214 l 1
EndSplineSet
EndChar

StartChar: equal
Encoding: 61 61 114
Width: 640
Flags: MW
HStem: 150 70<100 540 100 540> 355 70<100 540 100 540>
LayerCount: 2
Fore
SplineSet
100 150 m 1
 100 220 l 1
 540 220 l 1
 540 150 l 1
 100 150 l 1
100 355 m 1
 100 425 l 1
 540 425 l 1
 540 355 l 1
 100 355 l 1
EndSplineSet
EndChar

StartChar: eth
Encoding: 240 240 115
Width: 601
Flags: MW
HStem: -13 71<256.5 332 256.5 353> 324 70<256.5 321.5 249 334.5> 671 20G<286 286>
VStem: 75 85<137 230 137 263.5> 420 85
LayerCount: 2
Fore
SplineSet
264 442 m 1
 226 490 l 1
 307 552 l 1
 283 580 256 608 228 637 c 1
 286 691 l 1
 316 658 344 628 369 599 c 1
 458 666 l 1
 494 619 l 1
 407 552 l 1
 467 472 505 389 505 268 c 0
 505 81 418 -13 288 -13 c 0
 142 -13 75 68 75 189 c 0
 75 338 206 394 292 394 c 0
 351 394 410 380 410 380 c 1
 396 426 373 466 345 505 c 1
 264 442 l 1
289 58 m 0
 375 58 416 120 420 259 c 0
 421 282 417 313 417 313 c 1
 417 313 365 324 304 324 c 0
 209 324 160 273 160 187 c 0
 160 87 224 58 289 58 c 0
EndSplineSet
EndChar

StartChar: exclam
Encoding: 33 33 116
Width: 341
Flags: MW
HStem: 0 118<162.5 196> 118 64<162.5 196> 719 20G<231 231>
VStem: 120 121<42.5 75> 139 83
LayerCount: 2
Fore
SplineSet
149 182 m 1x68
 129 728 l 1
 231 739 l 1
 214 182 l 1
 149 182 l 1x68
120 59 m 0xb0
 120 91 146 118 179 118 c 0
 213 118 241 91 241 59 c 0
 241 26 213 0 179 0 c 0
 146 0 120 26 120 59 c 0xb0
EndSplineSet
EndChar

StartChar: exclamdown
Encoding: 161 161 117
Width: 341
Flags: MW
HStem: -242 21G<211 211> 315 60<142.5 176 142.5 194 142.5 194> 375 118<142.5 176>
VStem: 100 121<418 450.5> 119 83
LayerCount: 2
Fore
SplineSet
109 -231 m 1xc8
 129 315 l 1
 194 315 l 1
 211 -242 l 1
 109 -231 l 1xc8
100 434 m 0xb0
 100 467 126 493 159 493 c 0
 193 493 221 467 221 434 c 0
 221 402 193 375 159 375 c 0
 126 375 100 402 100 434 c 0xb0
EndSplineSet
EndChar

StartChar: f
Encoding: 102 102 118
Width: 426
Flags: MW
HStem: 438 65<50 143 50 143 223 348> 688 70<273.5 334.5>
VStem: 143 80<0 438 0 438 0 596>
LayerCount: 2
Fore
SplineSet
143 0 m 1
 143 438 l 1
 50 438 l 1
 50 503 l 1
 143 503 l 1
 143 689 192 758 317 758 c 0
 368 758 415 738 441 715 c 1
 406 655 l 1
 380 675 351 688 318 688 c 0
 229 688 224 606 223 503 c 1
 348 503 l 1
 348 438 l 1
 223 438 l 1
 223 0 l 1
 143 0 l 1
EndSplineSet
EndChar

StartChar: fi
Encoding: 64257 64257 119
Width: 657
Flags: MW
HStem: 438 65<50 142 50 143 50 142 223 223 223 363 363 414.5> 688 70<313.5 401>
VStem: 143 80<0 438 0 438> 476 80<0 438 438 438>
LayerCount: 2
Fore
SplineSet
143 0 m 1
 143 438 l 1
 50 438 l 1
 50 503 l 1
 142 503 l 1
 142 689 257 758 367 758 c 0
 448 758 521 716 557 693 c 1
 521 633 l 1
 490 653 434 688 368 688 c 0
 259 688 223 606 222 503 c 1
 363 503 l 2
 466 503 556 513 556 513 c 1
 556 0 l 1
 476 0 l 1
 476 438 l 1
 223 438 l 1
 223 0 l 1
 143 0 l 1
EndSplineSet
Ligature2: "'liga' Standard Ligatures in Latin lookup 0 subtable" f i
EndChar

StartChar: five
Encoding: 53 53 120
Width: 569
Flags: MW
HStem: -195 70<230.5 315 230.5 319.5> 151 70<266.5 328> 433 70<225 468 225 225>
VStem: 409 85<-26 60>
LayerCount: 2
Fore
SplineSet
120 133 m 1
 151 503 l 1
 468 503 l 1
 468 433 l 1
 225 433 l 1
 207 210 l 1
 207 210 243 221 290 221 c 0
 415 221 494 154 494 21 c 0
 494 -152 377 -195 262 -195 c 0
 160 -195 70 -140 70 -140 c 1
 97 -73 l 1
 149 -97 198 -125 263 -125 c 0
 367 -125 409 -73 409 21 c 0
 409 99 375 151 281 151 c 0
 217 151 159 127 159 127 c 1
 120 133 l 1
EndSplineSet
EndChar

StartChar: fl
Encoding: 64258 64258 121
Width: 656
Flags: MW
HStem: 438 65<50 142 50 143 50 142 223 223 223 348> 698 70<309.5 407.5>
VStem: 143 80<0 438 0 438> 476 80<0 683 683 683>
LayerCount: 2
Fore
SplineSet
143 0 m 1
 143 438 l 1
 50 438 l 1
 50 503 l 1
 142 503 l 1
 142 689 232 768 377 768 c 0
 469 768 556 738 556 738 c 1
 556 0 l 1
 476 0 l 1
 476 683 l 1
 476 683 437 698 378 698 c 0
 241 698 223 606 222 503 c 1
 348 503 l 1
 348 438 l 1
 223 438 l 1
 223 0 l 1
 143 0 l 1
EndSplineSet
Ligature2: "'liga' Standard Ligatures in Latin lookup 0 subtable" f l
EndChar

StartChar: four
Encoding: 52 52 122
Width: 692
Flags: MW
HStem: 0 70<380 442 380 442 522 592> 483 20G<442 522 522 522>
VStem: 442 80<-195 0 -195 0 70 175 175 246.5>
LayerCount: 2
Fore
SplineSet
447 402 m 1
 172 66 l 1
 172 66 291 70 380 70 c 2
 442 70 l 1
 442 175 l 2
 442 318 447 402 447 402 c 1
75 0 m 1
 70 54 l 1
 442 503 l 1
 522 503 l 1
 522 70 l 1
 592 70 l 1
 592 0 l 1
 522 0 l 1
 522 -195 l 1
 442 -195 l 1
 442 0 l 1
 75 0 l 1
EndSplineSet
EndChar

StartChar: g
Encoding: 103 103 123
Width: 596
Flags: MW
HStem: -243 69<240 325 240 375.5> -13 70<243 308.5> 443 70<267 346.5>
VStem: 75 85<205 304.5 205 347.5> 417 79<-33 40 40 40 110 429 429 429>
LayerCount: 2
Fore
SplineSet
496 491 m 1
 496 -48 l 2
 496 -147 463 -243 288 -243 c 0
 180 -243 105 -209 105 -209 c 1
 126 -139 l 1
 126 -139 202 -174 278 -174 c 0
 372 -174 417 -139 417 -33 c 2
 417 40 l 1
 417 40 341 -13 276 -13 c 0
 152 -13 75 75 75 248 c 0
 75 447 215 513 319 513 c 0
 387 513 442 497 496 491 c 1
285 57 m 0
 344 57 417 110 417 110 c 1
 417 429 l 1
 417 429 374 443 319 443 c 0
 208 443 160 357 160 252 c 0
 160 158 201 57 285 57 c 0
EndSplineSet
EndChar

StartChar: germandbls
Encoding: 223 223 124
Width: 677
Flags: MW
HStem: -13 71<377 435 377 452.5> 686 73<249.5 342.5>
VStem: 100 80<0 411 0 442 0 548> 266 85<339 410 339 435.5> 452 72<518.5 621> 517 85<98.5 172.5>
LayerCount: 2
Fore
SplineSet
100 0 m 1xf8
 100 442 l 2
 100 654 143 759 322 759 c 0
 416 759 524 716 524 588 c 0xf8
 524 410 351 449 351 371 c 0
 351 307 602 277 602 130 c 0
 602 19 495 -13 410 -13 c 0
 335 -13 261 9 261 9 c 1
 277 82 l 1
 277 82 343 58 411 58 c 0
 459 58 517 70 517 127 c 0xf4
 517 218 266 235 266 373 c 0
 266 498 452 458 452 579 c 0
 452 663 370 686 315 686 c 0
 184 686 180 583 180 411 c 2
 180 0 l 1
 100 0 l 1xf8
EndSplineSet
EndChar

StartChar: grave
Encoding: 96 96 125
Width: 424
Flags: W
LayerCount: 2
Fore
SplineSet
290 601 m 1
 100 710 l 1
 152 771 l 1
 324 646 l 1
 290 601 l 1
EndSplineSet
EndChar

StartChar: greater
Encoding: 62 62 126
Width: 573
Flags: W
LayerCount: 2
Fore
SplineSet
100 84 m 1
 100 170 l 1
 359 305 l 1
 100 430 l 1
 100 506 l 1
 473 331 l 1
 473 290 l 1
 100 84 l 1
EndSplineSet
EndChar

StartChar: greaterequal
Encoding: 8805 8805 127
Width: 543
Flags: MW
HStem: 0 70<100 443 100 443>
LayerCount: 2
Fore
SplineSet
100 111 m 1
 100 198 l 1
 325 342 l 1
 100 476 l 1
 100 560 l 1
 443 362 l 1
 443 315 l 1
 100 111 l 1
100 0 m 1
 100 70 l 1
 443 70 l 1
 443 0 l 1
 100 0 l 1
EndSplineSet
EndChar

StartChar: guillemotleft
Encoding: 171 171 128
Width: 570
Flags: W
LayerCount: 2
Fore
SplineSet
149 255 m 1
 301 73 l 1
 248 28 l 1
 57 255 l 1
 248 482 l 1
 301 437 l 1
 149 255 l 1
361 255 m 1
 513 73 l 1
 460 28 l 1
 269 255 l 1
 460 482 l 1
 513 437 l 1
 361 255 l 1
EndSplineSet
EndChar

StartChar: guillemotright
Encoding: 187 187 129
Width: 572
Flags: W
LayerCount: 2
Fore
SplineSet
270 73 m 1
 422 255 l 1
 270 437 l 1
 323 482 l 1
 514 255 l 1
 323 28 l 1
 270 73 l 1
58 73 m 1
 210 255 l 1
 58 437 l 1
 111 482 l 1
 302 255 l 1
 111 28 l 1
 58 73 l 1
EndSplineSet
EndChar

StartChar: guilsinglleft
Encoding: 8249 8249 130
Width: 372
Flags: W
LayerCount: 2
Fore
SplineSet
156 255 m 1
 308 73 l 1
 255 28 l 1
 64 255 l 1
 255 482 l 1
 308 437 l 1
 156 255 l 1
EndSplineSet
EndChar

StartChar: guilsinglright
Encoding: 8250 8250 131
Width: 372
Flags: W
LayerCount: 2
Fore
SplineSet
64 73 m 1
 216 255 l 1
 64 437 l 1
 117 482 l 1
 308 255 l 1
 117 28 l 1
 64 73 l 1
EndSplineSet
EndChar

StartChar: h
Encoding: 104 104 132
Width: 600
Flags: MW
HStem: 443 70<322.5 387>
VStem: 100 80<0 370 440 749 749 749> 425 80<0 315 315 324 0 354.5>
LayerCount: 2
Fore
SplineSet
100 0 m 1
 100 749 l 1
 180 758 l 1
 180 440 l 1
 180 440 285 513 360 513 c 0
 469 513 505 467 505 324 c 2
 505 0 l 1
 425 0 l 1
 425 315 l 2
 425 394 425 443 349 443 c 0
 280 443 180 370 180 370 c 1
 180 0 l 1
 100 0 l 1
EndSplineSet
EndChar

StartChar: hungarumlaut
Encoding: 733 733 133
Width: 535
Flags: W
LayerCount: 2
Fore
SplineSet
100 591 m 1
 180 758 l 1
 275 758 l 1
 186 591 l 1
 100 591 l 1
260 591 m 1
 340 758 l 1
 435 758 l 1
 350 591 l 1
 260 591 l 1
EndSplineSet
EndChar

StartChar: hyphen
Encoding: 45 45 134
AltUni2: 0000ad.ffffffff.0
Width: 467
Flags: MW
HStem: 220 74<100 367 100 367>
LayerCount: 2
Fore
SplineSet
100 220 m 1
 100 294 l 1
 367 294 l 1
 367 220 l 1
 100 220 l 1
EndSplineSet
EndChar

StartChar: i
Encoding: 105 105 135
Width: 280
Flags: MW
HStem: 593 108<126 157>
VStem: 87 111<631.5 662> 100 80<0 504 504 504>
LayerCount: 2
Fore
SplineSet
100 0 m 1xa0
 100 504 l 1
 180 513 l 1
 180 0 l 1
 100 0 l 1xa0
87 647 m 0xc0
 87 677 111 701 141 701 c 0
 173 701 198 677 198 647 c 0
 198 616 173 593 141 593 c 0
 111 593 87 616 87 647 c 0xc0
EndSplineSet
EndChar

StartChar: icircumflex
Encoding: 238 238 137
Width: 280
Flags: MW
VStem: 100 80<0 504 504 504>
LayerCount: 2
Fore
SplineSet
100 0 m 1
 100 504 l 1
 180 513 l 1
 180 0 l 1
 100 0 l 1
-16 633 m 1
 119 770 l 1
 159 770 l 1
 294 633 l 1
 254 600 l 1
 139 697 l 1
 24 600 l 1
 -16 633 l 1
EndSplineSet
EndChar

StartChar: igrave
Encoding: 236 236 139
Width: 248
Flags: MW
VStem: 79 80<0 504 504 504>
LayerCount: 2
Fore
SplineSet
79 0 m 1
 79 504 l 1
 159 513 l 1
 159 0 l 1
 79 0 l 1
156 600 m 1
 -34 709 l 1
 18 770 l 1
 190 645 l 1
 156 600 l 1
EndSplineSet
EndChar

StartChar: j
Encoding: 106 106 140
Width: 317
Flags: MW
HStem: 593 108<145 176>
VStem: 106 111<631.5 662> 122 80<20 502 502 502>
LayerCount: 2
Fore
SplineSet
122 502 m 1xa0
 202 514 l 1
 202 9 l 2
 202 -110 159 -185 66 -238 c 1
 25 -167 l 1
 106 -120 122 -48 122 20 c 2
 122 502 l 1xa0
106 647 m 0xc0
 106 677 130 701 160 701 c 0
 192 701 217 677 217 647 c 0
 217 616 192 593 160 593 c 0
 130 593 106 616 106 647 c 0xc0
EndSplineSet
EndChar

StartChar: k
Encoding: 107 107 141
Width: 546
Flags: MW
VStem: 100 80<0 212 307 749 749 749>
LayerCount: 2
Fore
SplineSet
100 0 m 1
 100 749 l 1
 180 758 l 1
 180 307 l 1
 403 503 l 1
 513 503 l 1
 295 312 l 1
 521 0 l 1
 420 0 l 1
 236 261 l 1
 180 212 l 1
 180 0 l 1
 100 0 l 1
EndSplineSet
EndChar

StartChar: l
Encoding: 108 108 142
Width: 280
Flags: MW
VStem: 100 80<0 749 749 749>
LayerCount: 2
Fore
SplineSet
100 0 m 1
 100 749 l 1
 180 758 l 1
 180 0 l 1
 100 0 l 1
EndSplineSet
EndChar

StartChar: less
Encoding: 60 60 143
Width: 573
Flags: MW
HStem: 0 0
LayerCount: 2
Fore
SplineSet
473 84 m 1
 100 290 l 1
 100 331 l 1
 473 506 l 1
 473 430 l 1
 214 305 l 1
 473 170 l 1
 473 84 l 1
EndSplineSet
EndChar

StartChar: lessequal
Encoding: 8804 8804 144
Width: 543
Flags: MW
HStem: 0 70<100 443 100 443>
LayerCount: 2
Fore
SplineSet
100 315 m 1
 100 362 l 1
 443 560 l 1
 443 476 l 1
 218 342 l 1
 443 198 l 1
 443 111 l 1
 100 315 l 1
100 0 m 1
 100 70 l 1
 443 70 l 1
 443 0 l 1
 100 0 l 1
EndSplineSet
EndChar

StartChar: logicalnot
Encoding: 172 172 145
Width: 670
Flags: MW
HStem: 74 220<481 555 481 481> 220 74<115 555 115 481>
VStem: 481 74<74 220 220 220>
LayerCount: 2
Fore
SplineSet
115 220 m 1x60
 115 294 l 1
 555 294 l 1
 555 74 l 1
 481 74 l 1xa0
 481 220 l 1
 115 220 l 1x60
EndSplineSet
EndChar

StartChar: lslash
Encoding: 322 322 146
Width: 450
Flags: MW
VStem: 179 80<0 321 321 321 441 749 749 749>
LayerCount: 2
Fore
SplineSet
41 257 m 1
 10 326 l 1
 179 404 l 1
 179 749 l 1
 259 758 l 1
 259 441 l 1
 409 511 l 1
 440 442 l 1
 259 358 l 1
 259 0 l 1
 179 0 l 1
 179 321 l 1
 41 257 l 1
EndSplineSet
EndChar

StartChar: m
Encoding: 109 109 147
Width: 885
Flags: MW
HStem: 443 70<309.5 372 618 672>
VStem: 100 80<0 371 0 412 0 426.5> 405 80<0 315 315 354.5> 705 80<0 315 315 324 0 354.5>
LayerCount: 2
Fore
SplineSet
100 0 m 1
 100 412 l 2
 100 441 94 494 94 494 c 1
 169 504 l 1
 180 441 l 1
 180 441 269 513 350 513 c 0
 416 513 454 492 472 436 c 1
 526 474 586 513 650 513 c 0
 749 513 785 467 785 324 c 2
 785 0 l 1
 705 0 l 1
 705 315 l 2
 705 394 705 443 639 443 c 0
 577 443 527 403 485 369 c 1
 485 0 l 1
 405 0 l 1
 405 315 l 2
 405 394 405 443 339 443 c 0
 270 443 180 371 180 371 c 1
 180 0 l 1
 100 0 l 1
EndSplineSet
EndChar

StartChar: macron
Encoding: 175 175 148
AltUni2: 0002c9.ffffffff.0
Width: 606
Flags: MW
HStem: 592 70<100 506 100 506>
LayerCount: 2
Fore
SplineSet
100 592 m 1
 100 662 l 1
 506 662 l 1
 506 592 l 1
 100 592 l 1
EndSplineSet
EndChar

StartChar: minus
Encoding: 8722 8722 149
Width: 487
Flags: MW
HStem: 247 80<100 387 100 387>
LayerCount: 2
Fore
SplineSet
100 247 m 1
 100 327 l 1
 387 327 l 1
 387 247 l 1
 100 247 l 1
EndSplineSet
EndChar

StartChar: multiply
Encoding: 215 215 150
Width: 588
Flags: W
LayerCount: 2
Fore
SplineSet
60 60 m 1
 251 251 l 1
 60 443 l 1
 102 486 l 1
 294 294 l 1
 486 486 l 1
 528 443 l 1
 336 251 l 1
 528 60 l 1
 486 17 l 1
 294 209 l 1
 102 17 l 1
 60 60 l 1
EndSplineSet
EndChar

StartChar: n
Encoding: 110 110 151
Width: 605
Flags: MW
HStem: 443 70<322.5 387>
VStem: 100 80<0 370 0 403 0 423> 425 80<0 315 315 324 0 354.5>
LayerCount: 2
Fore
SplineSet
100 0 m 1
 100 403 l 2
 100 443 95 494 95 494 c 1
 169 504 l 1
 180 440 l 1
 180 440 285 513 360 513 c 0
 469 513 505 467 505 324 c 2
 505 0 l 1
 425 0 l 1
 425 315 l 2
 425 394 425 443 349 443 c 0
 280 443 180 370 180 370 c 1
 180 0 l 1
 100 0 l 1
EndSplineSet
EndChar

StartChar: nine
Encoding: 57 57 152
Width: 520
Flags: MW
HStem: 101 70<226.5 291.5> 443 70<226.5 302>
VStem: 45 85<265 358 265 369.5> 390 85
LayerCount: 2
Fore
SplineSet
91 -205 m 1
 67 -133 l 1
 245 -74 341 19 376 109 c 1
 376 109 321 101 262 101 c 0
 158 101 45 157 45 306 c 0
 45 433 130 513 266 513 c 0
 396 513 475 427 475 227 c 0
 475 -55 240 -160 91 -205 c 1
259 443 m 0
 194 443 130 408 130 308 c 0
 130 222 179 171 274 171 c 0
 335 171 387 180 387 180 c 1
 387 180 391 196 390 236 c 0
 387 375 345 443 259 443 c 0
EndSplineSet
EndChar

StartChar: notequal
Encoding: 8800 8800 153
Width: 680
Flags: W
LayerCount: 2
Fore
SplineSet
100 150 m 1
 100 220 l 1
 580 220 l 1
 580 150 l 1
 100 150 l 1
100 355 m 1
 100 425 l 1
 580 425 l 1
 580 355 l 1
 100 355 l 1
406 560 m 1
 472 536 l 1
 286 23 l 1
 220 47 l 1
 406 560 l 1
EndSplineSet
EndChar

StartChar: numbersign
Encoding: 35 35 155
Width: 666
Flags: MW
HStem: 229 70<100 158 100 182 100 235 259 356 458 527> 373 70<117 207 117 231 117 285 309 406 507 566>
LayerCount: 2
Fore
SplineSet
117 109 m 1
 158 229 l 1
 100 229 l 1
 100 299 l 1
 182 299 l 1
 207 373 l 1
 117 373 l 1
 117 443 l 1
 231 443 l 1
 276 572 l 1
 346 549 l 1
 309 443 l 1
 430 443 l 1
 476 577 l 1
 546 554 l 1
 507 443 l 1
 566 443 l 1
 566 373 l 1
 483 373 l 1
 458 299 l 1
 527 299 l 1
 527 229 l 1
 434 229 l 1
 385 87 l 1
 317 114 l 1
 356 229 l 1
 235 229 l 1
 185 82 l 1
 117 109 l 1
259 299 m 1
 380 299 l 1
 406 373 l 1
 285 373 l 1
 259 299 l 1
EndSplineSet
EndChar

StartChar: o
Encoding: 111 111 156
Width: 636
Flags: MW
HStem: -13 70<272 364> 443 70<270 363.5>
VStem: 75 85<184.5 313.5 184.5 351.5> 476 85<183 311>
LayerCount: 2
Fore
SplineSet
160 249 m 0
 160 120 223 57 321 57 c 0
 418 57 476 121 476 245 c 0
 476 377 413 443 314 443 c 0
 214 443 160 378 160 249 c 0
75 250 m 0
 75 453 220 513 320 513 c 0
 417 513 561 459 561 256 c 0
 561 46 413 -13 315 -13 c 0
 214 -13 75 42 75 250 c 0
EndSplineSet
EndChar

StartChar: ocircumflex
Encoding: 244 244 158
Width: 636
Flags: MW
HStem: -13 70<272 364> 443 70<270 363.5>
VStem: 75 85<184.5 313.5 184.5 351.5> 476 85<183 311>
LayerCount: 2
Fore
SplineSet
160 249 m 0
 160 120 223 57 321 57 c 0
 418 57 476 121 476 245 c 0
 476 377 413 443 314 443 c 0
 214 443 160 378 160 249 c 0
75 250 m 0
 75 453 220 513 320 513 c 0
 417 513 561 459 561 256 c 0
 561 46 413 -13 315 -13 c 0
 214 -13 75 42 75 250 c 0
166 633 m 1
 301 770 l 1
 341 770 l 1
 476 633 l 1
 436 600 l 1
 321 697 l 1
 206 600 l 1
 166 633 l 1
EndSplineSet
EndChar

StartChar: oe
Encoding: 339 339 160
Width: 972
Flags: MW
HStem: -13 70<265 345.5 662.5 747.5> 231 64<557 809 557 877 554 809> 443 70<262 346 261 363 661 749>
VStem: 75 85<188.5 313.5 188.5 347.5> 476 81<295 315 295 316.5>
LayerCount: 2
Fore
SplineSet
852 79 m 1
 867 14 l 1
 867 14 791 -13 704 -13 c 0
 621 -13 552 16 511 83 c 1
 460 10 377 -13 314 -13 c 0
 216 -13 75 37 75 252 c 0
 75 443 208 513 314 513 c 0
 378 513 460 496 513 419 c 1
 551 481 616 513 706 513 c 0
 836 513 892 404 892 275 c 1
 877 231 l 1
 554 231 l 1
 554 209 l 1
 561 133 604 57 719 57 c 0
 800 57 852 79 852 79 c 1
476 252 m 0
 476 381 412 443 314 443 c 0
 210 443 160 375 160 252 c 0
 160 125 216 57 314 57 c 0
 417 57 476 113 476 252 c 0
557 295 m 1
 809 295 l 1
 809 314 801 443 697 443 c 0
 585 443 557 335 557 295 c 1
EndSplineSet
EndChar

StartChar: ograve
Encoding: 242 242 161
Width: 576
Flags: MW
HStem: -13 70<237 329> 443 70<235 328.5>
VStem: 40 85<184.5 313.5 184.5 351.5> 441 85<183 311>
LayerCount: 2
Fore
SplineSet
125 249 m 0
 125 120 188 57 286 57 c 0
 383 57 441 121 441 245 c 0
 441 377 378 443 279 443 c 0
 179 443 125 378 125 249 c 0
40 250 m 0
 40 453 185 513 285 513 c 0
 382 513 526 459 526 256 c 0
 526 46 378 -13 280 -13 c 0
 179 -13 40 42 40 250 c 0
341 601 m 1
 151 710 l 1
 203 771 l 1
 375 646 l 1
 341 601 l 1
EndSplineSet
EndChar

StartChar: one
Encoding: 49 49 162
Width: 367
Flags: MW
VStem: 177 80<0 411 411 411>
LayerCount: 2
Fore
SplineSet
177 0 m 1
 177 411 l 1
 46 386 l 1
 30 454 l 1
 208 503 l 1
 257 503 l 1
 257 0 l 1
 177 0 l 1
EndSplineSet
EndChar

StartChar: ordfeminine
Encoding: 170 170 163
Width: 597
Flags: MW
HStem: 376 51<266.5 291> 376 202 672 58<300.5 354.5>
VStem: 167 68<454.5 486 454.5 505> 380 67<468 535 535 535 582 607>
LayerCount: 2
Fore
SplineSet
380 468 m 1xb8
 380 535 l 1
 380 535 343 533 319 529 c 1
 254 522 235 502 235 470 c 0
 235 439 251 427 282 427 c 0
 325 427 348 444 380 468 c 1xb8
386 379 m 1
 379 416 l 1
 334 384 307 376 275 376 c 0
 216 376 167 403 167 470 c 0
 167 540 251 572 327 578 c 0x78
 359 580 380 582 380 582 c 1
 380 644 386 672 323 672 c 0
 271 672 212 658 212 658 c 1
 201 715 l 1
 201 715 267 730 334 730 c 0
 425 730 447 671 447 607 c 2
 447 445 l 2
 447 421 451 384 451 384 c 1
 386 379 l 1
EndSplineSet
EndChar

StartChar: ordmasculine
Encoding: 186 186 164
Width: 597
Flags: MW
HStem: 374 58<282 344> 673 57<280.5 343.5>
VStem: 143 68<513 590.5 513 621> 415 67<512 588.5>
LayerCount: 2
Fore
SplineSet
211 552 m 0
 211 474 249 432 315 432 c 0
 381 432 415 475 415 549 c 0
 415 628 377 673 310 673 c 0
 242 673 211 629 211 552 c 0
143 552 m 0
 143 690 247 730 314 730 c 0
 380 730 482 694 482 556 c 0
 482 414 377 374 311 374 c 0
 242 374 143 411 143 552 c 0
EndSplineSet
EndChar

StartChar: oslash
Encoding: 248 248 165
Width: 636
Flags: MW
HStem: -13 70<302.5 364> 443 70<270 335>
VStem: 75 85<224 313.5 224 351.5> 476 85<183 267.5>
LayerCount: 2
Fore
SplineSet
82 5 m 1
 132 65 l 1
 98 105 75 165 75 250 c 0
 75 453 220 513 320 513 c 0
 366 513 422 501 469 467 c 1
 522 530 l 1
 568 492 l 1
 512 425 l 1
 541 386 561 331 561 256 c 0
 561 46 413 -13 315 -13 c 0
 271 -13 220 -3 177 25 c 1
 128 -33 l 1
 82 5 l 1
160 249 m 0
 160 199 169 159 186 129 c 1
 419 407 l 1
 392 431 356 443 314 443 c 0
 214 443 160 378 160 249 c 0
476 245 m 0
 476 290 468 327 455 357 c 1
 226 84 l 1
 251 65 284 57 321 57 c 0
 418 57 476 121 476 245 c 0
EndSplineSet
EndChar

StartChar: otilde
Encoding: 245 245 166
Width: 636
Flags: MW
HStem: -13 70<272 364> 443 70<270 363.5>
VStem: 75 85<184.5 313.5 184.5 351.5> 476 85<183 311>
LayerCount: 2
Fore
SplineSet
160 249 m 0
 160 120 223 57 321 57 c 0
 418 57 476 121 476 245 c 0
 476 377 413 443 314 443 c 0
 214 443 160 378 160 249 c 0
75 250 m 0
 75 453 220 513 320 513 c 0
 417 513 561 459 561 256 c 0
 561 46 413 -13 315 -13 c 0
 214 -13 75 42 75 250 c 0
444 704 m 1
 498 663 l 1
 462 618 428 600 395 600 c 0
 329 600 292 640 259 640 c 0
 233 640 213 626 196 603 c 1
 144 647 l 1
 178 694 219 705 255 705 c 0
 312 705 350 665 384 665 c 0
 415 665 431 685 444 704 c 1
EndSplineSet
EndChar

StartChar: p
Encoding: 112 112 167
Width: 597
Flags: MW
HStem: -13 70<256.5 333.5 247.5 337.5> 443 70<283.5 359>
VStem: 100 80<-218 -1 -218 73 73 380> 437 85<196 295>
LayerCount: 2
Fore
SplineSet
100 -228 m 1
 100 387 l 2
 100 433 95 494 95 494 c 1
 169 504 l 1
 178 450 l 1
 178 450 246 513 321 513 c 0
 431 513 522 443 522 252 c 0
 522 57 397 -13 278 -13 c 0
 235 -13 180 -1 180 -1 c 1
 180 -218 l 1
 100 -228 l 1
278 57 m 0
 389 57 437 144 437 248 c 0
 437 342 406 443 312 443 c 0
 245 443 180 380 180 380 c 1
 180 73 l 1
 180 73 217 57 278 57 c 0
EndSplineSet
EndChar

StartChar: paragraph
Encoding: 182 182 168
Width: 575
Flags: MW
HStem: 612 70<323 395 323 323>
VStem: 395 80<10 612 612 612>
LayerCount: 2
Fore
SplineSet
395 10 m 2
 395 612 l 1
 323 612 l 1
 323 266 l 1
 275 266 l 2
 139 266 75 369 75 474 c 0
 75 620 124 682 266 682 c 2
 475 682 l 1
 475 -1 l 2
 475 -120 443 -169 355 -237 c 1
 299 -177 l 1
 380 -116 395 -58 395 10 c 2
EndSplineSet
EndChar

StartChar: parenleft
Encoding: 40 40 169
Width: 342
Flags: MW
VStem: 20 94<193 347 193 410.5>
LayerCount: 2
Fore
SplineSet
302 -216 m 1
 254 -262 l 1
 135 -165 20 -8 20 271 c 0
 20 550 135 703 254 800 c 1
 302 754 l 1
 148 601 114 424 114 270 c 0
 114 116 148 -61 302 -216 c 1
EndSplineSet
EndChar

StartChar: parenright
Encoding: 41 41 170
Width: 342
Flags: MW
VStem: 227 94<193 347>
LayerCount: 2
Fore
SplineSet
87 -262 m 1
 39 -216 l 1
 193 -61 227 116 227 270 c 0
 227 424 193 601 39 754 c 1
 87 800 l 1
 206 703 321 550 321 271 c 0
 321 -8 206 -165 87 -262 c 1
EndSplineSet
EndChar

StartChar: percent
Encoding: 37 37 171
Width: 875
Flags: MW
HStem: -13 64<593.5 658 593.5 691> 251 64<593.5 658> 376 64<219.5 284 219.5 317> 640 64<219.5 284>
VStem: 100 71<517.5 562.5 517.5 567> 329 72<517.5 562.5> 474 71<128.5 173.5 128.5 178> 703 72<128.5 173.5>
LayerCount: 2
Fore
SplineSet
100 540 m 0
 100 594 126 704 255 704 c 0
 379 704 401 590 401 540 c 0
 401 490 379 376 255 376 c 0
 126 376 100 486 100 540 c 0
329 540 m 0
 329 585 318 640 250 640 c 0
 189 640 171 585 171 540 c 0
 171 495 189 440 250 440 c 0
 318 440 329 495 329 540 c 0
474 151 m 0
 474 205 500 315 629 315 c 0
 753 315 775 201 775 151 c 0
 775 101 753 -13 629 -13 c 0
 500 -13 474 97 474 151 c 0
703 151 m 0
 703 196 692 251 624 251 c 0
 563 251 545 196 545 151 c 0
 545 106 563 51 624 51 c 0
 692 51 703 106 703 151 c 0
137 2 m 1
 656 743 l 1
 720 695 l 1
 201 -45 l 1
 137 2 l 1
EndSplineSet
EndChar

StartChar: period
Encoding: 46 46 172
Width: 341
Flags: MW
HStem: 0 118<162.5 196>
VStem: 120 121<42.5 75>
LayerCount: 2
Fore
SplineSet
120 59 m 0
 120 91 146 118 179 118 c 0
 213 118 241 91 241 59 c 0
 241 26 213 0 179 0 c 0
 146 0 120 26 120 59 c 0
EndSplineSet
EndChar

StartChar: periodcentered
Encoding: 183 183 173
AltUni2: 002219.ffffffff.0
Width: 318
Flags: MW
HStem: 334 118<142.5 175.5>
VStem: 100 118<376.5 409.5>
LayerCount: 2
Fore
SplineSet
100 393 m 0
 100 426 126 452 159 452 c 0
 192 452 218 426 218 393 c 0
 218 360 192 334 159 334 c 0
 126 334 100 360 100 393 c 0
EndSplineSet
EndChar

StartChar: perthousand
Encoding: 8240 8240 174
Width: 1213
Flags: MW
HStem: -13 64<593.5 658 593.5 691 931.5 996> 251 64<593.5 658 931.5 996> 376 64<219.5 284 219.5 317> 640 64<219.5 284>
VStem: 100 71<517.5 562.5 517.5 567> 329 72<517.5 562.5> 474 71<128.5 173.5 128.5 178> 703 72<128.5 173.5> 812 71<128.5 173.5 128.5 178> 1041 72<128.5 173.5>
LayerCount: 2
Fore
SplineSet
100 540 m 0
 100 594 126 704 255 704 c 0
 379 704 401 590 401 540 c 0
 401 490 379 376 255 376 c 0
 126 376 100 486 100 540 c 0
329 540 m 0
 329 585 318 640 250 640 c 0
 189 640 171 585 171 540 c 0
 171 495 189 440 250 440 c 0
 318 440 329 495 329 540 c 0
474 151 m 0
 474 205 500 315 629 315 c 0
 753 315 775 201 775 151 c 0
 775 101 753 -13 629 -13 c 0
 500 -13 474 97 474 151 c 0
703 151 m 0
 703 196 692 251 624 251 c 0
 563 251 545 196 545 151 c 0
 545 106 563 51 624 51 c 0
 692 51 703 106 703 151 c 0
812 151 m 0
 812 205 838 315 967 315 c 0
 1091 315 1113 201 1113 151 c 0
 1113 101 1091 -13 967 -13 c 0
 838 -13 812 97 812 151 c 0
1041 151 m 0
 1041 196 1030 251 962 251 c 0
 901 251 883 196 883 151 c 0
 883 106 901 51 962 51 c 0
 1030 51 1041 106 1041 151 c 0
137 2 m 1
 656 743 l 1
 720 695 l 1
 201 -45 l 1
 137 2 l 1
EndSplineSet
EndChar

StartChar: plus
Encoding: 43 43 175
Width: 640
Flags: MW
HStem: 220 74<100 280 100 280 360 540>
VStem: 280 80<40 220 40 220 294 474>
LayerCount: 2
Fore
SplineSet
100 220 m 1
 100 294 l 1
 280 294 l 1
 280 474 l 1
 360 474 l 1
 360 294 l 1
 540 294 l 1
 540 220 l 1
 360 220 l 1
 360 40 l 1
 280 40 l 1
 280 220 l 1
 100 220 l 1
EndSplineSet
EndChar

StartChar: plusminus
Encoding: 177 177 176
Width: 641
Flags: MW
HStem: 0 74<101 280 101 280 360 541> 220 74<100 280 100 280 360 540> 450 20G<280 360 360 360>
VStem: 280 80<74 220 74 220 294 470>
LayerCount: 2
Fore
SplineSet
101 0 m 1
 101 74 l 1
 280 74 l 1
 280 220 l 1
 100 220 l 1
 100 294 l 1
 280 294 l 1
 280 470 l 1
 360 470 l 1
 360 294 l 1
 540 294 l 1
 540 220 l 1
 360 220 l 1
 360 74 l 1
 541 74 l 1
 541 0 l 1
 101 0 l 1
EndSplineSet
EndChar

StartChar: q
Encoding: 113 113 177
Width: 596
Flags: MW
HStem: -13 70<243 308.5> 443 42 443 70<264 355.5>
VStem: 75 85<205 304 205 338.5> 417 79<-219 40 40 40 110 429 429 429>
LayerCount: 2
Fore
SplineSet
417 -229 m 1xd8
 417 40 l 1
 417 40 341 -13 276 -13 c 0
 166 -13 75 57 75 248 c 0
 75 429 209 513 319 513 c 0xb8
 420 513 436 485 496 485 c 1
 496 -219 l 1
 417 -229 l 1xd8
285 57 m 0
 344 57 417 110 417 110 c 1
 417 429 l 1
 417 429 392 443 319 443 c 0
 208 443 160 356 160 252 c 0
 160 158 201 57 285 57 c 0
EndSplineSet
EndChar

StartChar: question
Encoding: 63 63 178
Width: 525
Flags: MW
HStem: 0 118<166.5 200> 653 80<197.5 252.5>
VStem: 124 121<42.5 75> 144 80<182 302 182 310 182 371.5> 335 90<468.5 577.5>
LayerCount: 2
Fore
SplineSet
144 182 m 1xd8
 144 310 l 2
 144 433 335 393 335 544 c 0
 335 611 288 653 217 653 c 0
 178 653 140 638 140 638 c 1
 120 715 l 1
 120 715 160 733 224 733 c 0
 338 733 425 662 425 554 c 0
 425 359 224 378 224 302 c 2
 224 182 l 1
 144 182 l 1xd8
124 59 m 0xe8
 124 91 150 118 183 118 c 0
 217 118 245 91 245 59 c 0
 245 26 217 0 183 0 c 0
 150 0 124 26 124 59 c 0xe8
EndSplineSet
EndChar

StartChar: questiondown
Encoding: 191 191 179
Width: 500
Flags: MW
HStem: -244 80<247.5 302.5 247.5 308> 375 118<302 335.5>
VStem: 75 90<-88.5 27 -88.5 32.5> 257 121<418 450.5> 276 80<179 307>
LayerCount: 2
Fore
SplineSet
378 434 m 0xf0
 378 402 352 375 319 375 c 0
 285 375 257 402 257 434 c 0
 257 467 285 493 319 493 c 0
 352 493 378 467 378 434 c 0xf0
276 179 m 2xe8
 276 307 l 1
 356 307 l 1
 356 179 l 2
 356 41 165 109 165 -55 c 0
 165 -122 212 -164 283 -164 c 0
 322 -164 360 -149 360 -149 c 1
 380 -226 l 1
 380 -226 340 -244 276 -244 c 0
 162 -244 75 -173 75 -65 c 0
 75 130 276 116 276 179 c 2xe8
EndSplineSet
EndChar

StartChar: quotedbl
Encoding: 34 34 180
Width: 430
Flags: MW
HStem: 513 245<105 185 105 185 105 245 245 325>
VStem: 105 80<513 758 513 758> 245 80<513 758 513 758>
LayerCount: 2
Fore
SplineSet
245 513 m 1
 245 758 l 1
 325 758 l 1
 325 513 l 1
 245 513 l 1
105 513 m 1
 105 758 l 1
 185 758 l 1
 185 513 l 1
 105 513 l 1
EndSplineSet
EndChar

StartChar: quotedblbase
Encoding: 8222 8222 181
Width: 472
Flags: MW
VStem: 143 82<41 53 53 121 121 121> 285 82<41 53 53 121 121 121>
LayerCount: 2
Fore
SplineSet
143 41 m 2
 143 121 l 1
 225 130 l 1
 225 53 l 2
 225 -11 167 -123 167 -123 c 1
 105 -112 l 1
 105 -112 143 -15 143 41 c 2
285 41 m 2
 285 121 l 1
 367 130 l 1
 367 53 l 2
 367 -11 309 -123 309 -123 c 1
 247 -112 l 1
 247 -112 285 -15 285 41 c 2
EndSplineSet
EndChar

StartChar: quotedblleft
Encoding: 8220 8220 182
Width: 476
Flags: MW
VStem: 105 82<519 587 587 599 519 619> 251 82<519 587 587 599 519 619>
LayerCount: 2
Fore
SplineSet
251 510 m 1
 251 587 l 2
 251 651 309 763 309 763 c 1
 371 752 l 1
 371 752 333 655 333 599 c 2
 333 519 l 1
 251 510 l 1
105 510 m 1
 105 587 l 2
 105 651 163 763 163 763 c 1
 225 752 l 1
 225 752 187 655 187 599 c 2
 187 519 l 1
 105 510 l 1
EndSplineSet
EndChar

StartChar: quotedblright
Encoding: 8221 8221 183
Width: 483
Flags: MW
VStem: 143 82<678 690 690 758 758 758> 296 82<678 690 690 758 758 758>
LayerCount: 2
Fore
SplineSet
296 678 m 2
 296 758 l 1
 378 767 l 1
 378 690 l 2
 378 626 320 514 320 514 c 1
 258 525 l 1
 258 525 296 622 296 678 c 2
143 678 m 2
 143 758 l 1
 225 767 l 1
 225 690 l 2
 225 626 167 514 167 514 c 1
 105 525 l 1
 105 525 143 622 143 678 c 2
EndSplineSet
EndChar

StartChar: quoteleft
Encoding: 8216 8216 184
Width: 330
Flags: MW
VStem: 105 82<527 595 595 607 527 627>
LayerCount: 2
Fore
SplineSet
105 518 m 1
 105 595 l 2
 105 659 163 771 163 771 c 1
 225 760 l 1
 225 760 187 663 187 607 c 2
 187 527 l 1
 105 518 l 1
EndSplineSet
EndChar

StartChar: quoteright
Encoding: 8217 8217 185
Width: 330
Flags: MW
VStem: 143 82<681 693 693 761 761 761>
LayerCount: 2
Fore
SplineSet
143 681 m 2
 143 761 l 1
 225 770 l 1
 225 693 l 2
 225 629 167 517 167 517 c 1
 105 528 l 1
 105 528 143 625 143 681 c 2
EndSplineSet
EndChar

StartChar: quotesinglbase
Encoding: 8218 8218 186
Width: 330
Flags: MW
VStem: 143 82<41 53 53 121 121 121>
LayerCount: 2
Fore
SplineSet
143 41 m 2
 143 121 l 1
 225 130 l 1
 225 53 l 2
 225 -11 167 -123 167 -123 c 1
 105 -112 l 1
 105 -112 143 -15 143 41 c 2
EndSplineSet
EndChar

StartChar: quotesingle
Encoding: 39 39 187
Width: 280
Flags: MW
VStem: 100 80<513 758 513 758>
LayerCount: 2
Fore
SplineSet
100 513 m 1
 100 758 l 1
 180 758 l 1
 180 513 l 1
 100 513 l 1
EndSplineSet
EndChar

StartChar: r
Encoding: 114 114 188
Width: 383
Flags: MW
HStem: 436 77<261.5 292.5>
VStem: 100 80<0 336 0 422>
LayerCount: 2
Fore
SplineSet
100 0 m 1
 100 422 l 2
 100 452 95 494 95 494 c 1
 169 504 l 1
 177 431 l 1
 178 431 l 1
 178 431 238 513 284 513 c 0
 321 513 348 508 348 508 c 1
 330 431 l 1
 330 431 301 436 284 436 c 0
 239 436 180 336 180 336 c 1
 180 0 l 1
 100 0 l 1
EndSplineSet
EndChar

StartChar: registered
Encoding: 174 174 189
Width: 831
Flags: MW
HStem: 1 57<337.5 493.5 337.5 509> 482 61<366 396 366 366> 624 58<337.5 493.5>
VStem: 75 57<263.5 419.5 263.5 435> 302 64<159 312 159 373 373 482> 467 67<426 448> 698 58<263.5 419.5>
LayerCount: 2
Fore
SplineSet
75 341 m 0
 75 529 227 682 415 682 c 0
 603 682 756 529 756 341 c 0
 756 153 603 1 415 1 c 0
 227 1 75 153 75 341 c 0
132 341 m 0
 132 186 260 58 415 58 c 0
 572 58 698 186 698 341 c 0
 698 498 572 624 415 624 c 0
 260 624 132 498 132 341 c 0
302 159 m 1
 302 543 l 1
 396 543 l 2
 480 543 534 508 534 434 c 0
 534 341 458 323 458 323 c 1
 458 321 l 1
 580 159 l 1
 503 159 l 1
 391 312 l 1
 366 312 l 1
 366 159 l 1
 302 159 l 1
467 426 m 1
 467 470 444 482 396 482 c 2
 366 482 l 1
 366 373 l 1
 404 373 l 2
 452 373 466 396 467 426 c 1
EndSplineSet
EndChar

StartChar: ring
Encoding: 730 730 190
Width: 417
Flags: MW
HStem: 567 51<192 224 192 237> 733 51<192 224>
VStem: 100 51<659 691 659 706> 266 51<659 691>
LayerCount: 2
Fore
SplineSet
100 675 m 0
 100 737 146 784 206 784 c 0
 268 784 317 737 317 675 c 0
 317 615 268 567 206 567 c 0
 146 567 100 615 100 675 c 0
151 675 m 0
 151 643 176 618 208 618 c 0
 240 618 266 643 266 675 c 0
 266 707 240 733 208 733 c 0
 176 733 151 707 151 675 c 0
EndSplineSet
EndChar

StartChar: s
Encoding: 115 115 191
Width: 470
Flags: MW
HStem: -13 70<191 247 191 259.5> 443 70<211 270.5>
VStem: 67 85<337 400 337 428> 321 84<98.5 175.5>
LayerCount: 2
Fore
SplineSet
382 492 m 1
 368 421 l 1
 368 421 307 443 234 443 c 0
 188 443 152 418 152 382 c 0
 152 292 405 287 405 130 c 0
 405 19 297 -13 222 -13 c 0
 127 -13 65 8 65 8 c 1
 80 80 l 1
 80 80 159 57 223 57 c 0
 271 57 321 78 321 119 c 0
 321 232 67 220 67 388 c 0
 67 468 159 513 234 513 c 0
 310 513 382 492 382 492 c 1
EndSplineSet
EndChar

StartChar: section
Encoding: 167 167 193
Width: 565
Flags: MW
HStem: -243 80<199 287.5> 691 79<239 330.5>
VStem: 65 85<246 300 246 312 559.5 629> 420 85<-104 -22 -137 6>
LayerCount: 2
Fore
SplineSet
448 675 m 1
 448 675 373 691 288 691 c 0
 190 691 150 660 150 598 c 0
 150 456 505 462 505 261 c 0
 505 180 457 129 407 94 c 1
 465 58 505 14 505 -58 c 0
 505 -216 334 -243 241 -243 c 0
 136 -243 60 -211 60 -211 c 1
 80 -130 l 1
 80 -130 157 -163 241 -163 c 0
 344 -163 420 -139 420 -69 c 0
 420 81 65 61 65 279 c 0
 65 345 113 399 166 436 c 1
 109 473 65 521 65 598 c 0
 65 684 140 770 288 770 c 0
 385 770 462 750 462 750 c 1
 448 675 l 1
419 250 m 0
 419 318 318 362 239 397 c 1
 184 363 150 321 150 279 c 0
 150 213 253 167 333 131 c 1
 386 164 419 209 419 250 c 0
EndSplineSet
EndChar

StartChar: semicolon
Encoding: 59 59 194
Width: 362
Flags: MW
HStem: 119 217<183.5 217 183.5 234 183.5 234> 336 118<183.5 217>
VStem: 141 121<378.5 411>
LayerCount: 2
Fore
SplineSet
141 395 m 0x60
 141 427 167 454 200 454 c 0
 234 454 262 427 262 395 c 0
 262 362 234 336 200 336 c 0
 167 336 141 362 141 395 c 0x60
115 -127 m 1
 149 119 l 1
 234 119 l 1xa0
 178 -139 l 1
 115 -127 l 1
EndSplineSet
EndChar

StartChar: seven
Encoding: 55 55 195
Width: 591
Flags: MW
HStem: 433 70<100 491 100 391>
LayerCount: 2
Fore
SplineSet
100 433 m 1
 100 503 l 1
 491 503 l 1
 491 465 l 1
 331 81 l 2
 283 -33 230 -120 149 -207 c 1
 90 -154 l 1
 179 -53 223 28 264 127 c 2
 391 433 l 1
 100 433 l 1
EndSplineSet
EndChar

StartChar: six
Encoding: 54 54 196
Width: 620
Flags: MW
HStem: -13 70<267 342.5 267 364.5> 324 70<278.5 343.5>
VStem: 95 85 440 85<142 235>
LayerCount: 2
Fore
SplineSet
478 691 m 1
 503 620 l 1
 325 565 230 485 194 387 c 1
 194 387 249 394 308 394 c 0
 412 394 525 343 525 194 c 0
 525 67 425 -13 304 -13 c 0
 171 -13 95 68 95 268 c 0
 95 550 334 650 478 691 c 1
310 57 m 0
 375 57 440 92 440 192 c 0
 440 278 391 324 296 324 c 0
 235 324 184 317 184 317 c 1
 184 317 179 291 180 259 c 0
 184 120 224 57 310 57 c 0
EndSplineSet
EndChar

StartChar: slash
Encoding: 47 47 197
Width: 576
Flags: W
LayerCount: 2
Fore
SplineSet
63 -181 m 1
 438 850 l 1
 513 822 l 1
 138 -209 l 1
 63 -181 l 1
EndSplineSet
EndChar

StartChar: sterling
Encoding: 163 163 199
Width: 657
Flags: MW
HStem: 0 80<214.5 557 273 557 273 557> 312 75<255 488 255 255> 621 70<331 409>
VStem: 179 85
LayerCount: 2
Fore
SplineSet
110 -13 m 1
 100 59 l 1
 188 74 l 1
 171 307 l 1
 112 301 l 1
 105 372 l 1
 166 380 l 1
 157 509 l 2
 149 615 222 691 370 691 c 0
 467 691 543 665 543 665 c 1
 522 597 l 1
 522 597 448 621 370 621 c 0
 292 621 235 596 242 498 c 2
 250 387 l 1
 488 387 l 1
 488 312 l 1
 255 312 l 1
 273 80 l 1
 557 80 l 1
 557 0 l 1
 242 0 l 2
 187 0 110 -13 110 -13 c 1
EndSplineSet
EndChar

StartChar: t
Encoding: 116 116 200
Width: 419
Flags: MW
HStem: -13 70<248 287 248 296.5> 438 65<50 142 50 142 222 367>
VStem: 142 80<149 171 171 438 503 643 643 643>
LayerCount: 2
Fore
SplineSet
142 643 m 1
 222 653 l 1
 222 503 l 1
 367 503 l 1
 367 438 l 1
 222 438 l 1
 222 171 l 2
 222 83 229 57 267 57 c 0
 307 57 355 85 355 85 c 1
 379 24 l 1
 379 24 332 -13 261 -13 c 0
 173 -13 142 33 142 149 c 2
 142 438 l 1
 50 438 l 1
 50 503 l 1
 142 503 l 1
 142 643 l 1
EndSplineSet
EndChar

StartChar: three
Encoding: 51 51 201
Width: 529
Flags: MW
HStem: -195 70<190 252 190 261.5> 144 70<155 211> 443 70<210.5 281>
VStem: 341 93
LayerCount: 2
Fore
SplineSet
50 -159 m 1
 75 -92 l 1
 127 -116 163 -125 217 -125 c 0
 287 -125 349 -83 349 5 c 0
 349 93 271 143 155 144 c 1
 155 214 l 1
 267 214 341 263 341 355 c 0
 341 405 320 443 242 443 c 0
 179 443 121 426 121 426 c 1
 101 491 l 1
 101 491 165 513 253 513 c 0
 357 513 426 465 426 356 c 0
 426 249 349 200 302 184 c 1
 302 181 l 1
 369 157 434 101 434 5 c 0
 434 -152 306 -195 217 -195 c 0
 117 -195 50 -159 50 -159 c 1
EndSplineSet
EndChar

StartChar: tilde
Encoding: 732 732 202
Width: 554
Flags: W
LayerCount: 2
Fore
SplineSet
400 704 m 1
 454 663 l 1
 418 618 384 600 351 600 c 0
 285 600 248 640 215 640 c 0
 189 640 169 626 152 603 c 1
 100 647 l 1
 134 694 175 705 211 705 c 0
 268 705 306 665 340 665 c 0
 371 665 387 685 400 704 c 1
EndSplineSet
EndChar

StartChar: trademark
Encoding: 8482 8482 203
Width: 871
Flags: MW
HStem: 709 50<30 142 30 313 201 201 201 313>
VStem: 142 59<349 709 349 709> 368 48 726 49
LayerCount: 2
Fore
SplineSet
142 349 m 1
 142 709 l 1
 30 709 l 1
 30 759 l 1
 313 759 l 1
 313 709 l 1
 201 709 l 1
 201 349 l 1
 142 349 l 1
357 349 m 1
 379 759 l 1
 443 759 l 1
 571 422 l 1
 572 422 l 1
 701 759 l 1
 765 759 l 1
 786 349 l 1
 735 349 l 1
 718 614 l 2
 716 642 722 659 722 659 c 1
 721 659 l 1
 597 349 l 1
 546 349 l 1
 421 659 l 1
 420 659 l 1
 420 659 424 643 424 614 c 1
 408 349 l 1
 357 349 l 1
EndSplineSet
EndChar

StartChar: two
Encoding: 50 50 204
Width: 535
Flags: MW
HStem: 0 75<389 465 389 465> 443 70<223.5 304>
VStem: 365 85<318.5 391>
LayerCount: 2
Fore
SplineSet
70 0 m 1
 70 38 l 1
 70 38 365 267 365 370 c 0
 365 412 344 443 264 443 c 0
 183 443 100 413 100 413 c 1
 76 477 l 1
 76 477 168 513 276 513 c 0
 365 513 450 483 450 377 c 0
 450 255 225 71 225 71 c 1
 225 71 304 75 389 75 c 2
 465 75 l 1
 465 0 l 1
 70 0 l 1
EndSplineSet
EndChar

StartChar: u
Encoding: 117 117 205
Width: 579
Flags: MW
HStem: -13 70<213 271.5>
VStem: 100 80<176 188 188 503> 404 80<55 55 129 503>
LayerCount: 2
Fore
SplineSet
410 -8 m 1
 404 55 l 1
 402 55 l 1
 378 36 308 -13 235 -13 c 0
 136 -13 100 33 100 176 c 2
 100 503 l 1
 180 503 l 1
 180 188 l 2
 180 109 180 57 246 57 c 0
 315 57 404 129 404 129 c 1
 404 503 l 1
 484 503 l 1
 484 65 l 2
 484 33 489 0 489 0 c 1
 410 -8 l 1
EndSplineSet
EndChar

StartChar: ucircumflex
Encoding: 251 251 207
Width: 579
Flags: MW
HStem: -13 70<213 271.5>
VStem: 100 80<176 188 188 503> 404 80<55 55 129 503>
LayerCount: 2
Fore
SplineSet
410 -8 m 1
 404 55 l 1
 402 55 l 1
 378 36 308 -13 235 -13 c 0
 136 -13 100 33 100 176 c 2
 100 503 l 1
 180 503 l 1
 180 188 l 2
 180 109 180 57 246 57 c 0
 315 57 404 129 404 129 c 1
 404 503 l 1
 484 503 l 1
 484 65 l 2
 484 33 489 0 489 0 c 1
 410 -8 l 1
139 633 m 1
 274 770 l 1
 314 770 l 1
 449 633 l 1
 409 600 l 1
 294 697 l 1
 179 600 l 1
 139 633 l 1
EndSplineSet
EndChar

StartChar: ugrave
Encoding: 249 249 209
Width: 579
Flags: MW
HStem: -13 70<213 271.5>
VStem: 100 80<176 188 188 503> 404 80<55 55 129 503>
LayerCount: 2
Fore
SplineSet
410 -8 m 1
 404 55 l 1
 402 55 l 1
 378 36 308 -13 235 -13 c 0
 136 -13 100 33 100 176 c 2
 100 503 l 1
 180 503 l 1
 180 188 l 2
 180 109 180 57 246 57 c 0
 315 57 404 129 404 129 c 1
 404 503 l 1
 484 503 l 1
 484 65 l 2
 484 33 489 0 489 0 c 1
 410 -8 l 1
358 601 m 1
 168 710 l 1
 220 771 l 1
 392 646 l 1
 358 601 l 1
EndSplineSet
EndChar

StartChar: underscore
Encoding: 95 95 210
Width: 641
Flags: MW
HStem: -126 60<100 541 100 541>
LayerCount: 2
Fore
SplineSet
100 -126 m 1
 100 -66 l 1
 541 -66 l 1
 541 -126 l 1
 100 -126 l 1
EndSplineSet
EndChar

StartChar: mu
Encoding: 181 181 211
AltUni2: 0003bc.ffffffff.0
Width: 609
Flags: MW
HStem: -227 21G<115 115 115 195> -13 70<234.5 286.5> 483 20G<115 195 195 195 419 499 499 499>
VStem: 115 80<-227 0 148.5 188 188 503> 419 80<55 55 129 503>
LayerCount: 2
Fore
SplineSet
115 -227 m 1
 115 503 l 1
 195 503 l 1
 195 188 l 2
 195 109 195 57 261 57 c 0
 330 57 419 129 419 129 c 1
 419 503 l 1
 499 503 l 1
 499 65 l 2
 499 33 504 0 504 0 c 1
 425 -8 l 1
 419 55 l 1
 417 55 l 1
 393 36 323 -13 250 -13 c 0
 219 -13 210 -8 195 0 c 1
 195 -227 l 1
 115 -227 l 1
EndSplineSet
EndChar

StartChar: v
Encoding: 118 118 212
Width: 530
Flags: W
LayerCount: 2
Fore
SplineSet
215 0 m 1
 30 503 l 1
 118 503 l 1
 240 148 l 1
 262 69 l 1
 263 69 l 1
 286 148 l 1
 416 503 l 1
 500 503 l 1
 305 0 l 1
 215 0 l 1
EndSplineSet
EndChar

StartChar: w
Encoding: 119 119 213
Width: 779
Flags: W
LayerCount: 2
Fore
SplineSet
166 0 m 1
 30 503 l 1
 114 503 l 1
 173 276 l 2
 193 199 213 89 213 89 c 1
 214 89 l 1
 214 89 241 199 265 276 c 2
 336 503 l 1
 443 503 l 1
 500 276 l 2
 519 201 539 89 539 89 c 1
 540 89 l 1
 540 89 573 202 596 276 c 2
 666 503 l 1
 749 503 l 1
 584 0 l 1
 495 0 l 1
 423 276 l 2
 397 377 386 440 386 440 c 1
 384 440 l 1
 384 440 371 377 340 276 c 2
 255 0 l 1
 166 0 l 1
EndSplineSet
EndChar

StartChar: x
Encoding: 120 120 214
Width: 567
Flags: W
LayerCount: 2
Fore
SplineSet
35 0 m 1
 226 264 l 1
 40 503 l 1
 134 503 l 1
 281 317 l 1
 420 503 l 1
 510 503 l 1
 335 267 l 1
 527 0 l 1
 433 0 l 1
 280 213 l 1
 125 0 l 1
 35 0 l 1
EndSplineSet
EndChar

StartChar: y
Encoding: 121 121 215
Width: 542
Flags: W
LayerCount: 2
Fore
SplineSet
231 13 m 1
 30 503 l 1
 115 503 l 1
 209 276 l 2
 245 189 274 91 274 91 c 1
 275 91 l 1
 275 91 307 189 341 276 c 2
 428 503 l 1
 512 503 l 1
 274 -97 l 2
 236 -194 142 -242 142 -242 c 1
 103 -173 l 1
 103 -173 175 -140 200 -69 c 1
 231 13 l 1
EndSplineSet
EndChar

StartChar: ydieresis
Encoding: 255 255 217
Width: 542
Flags: MW
HStem: 603 108<170 201 341 372>
VStem: 131 111<641.5 672> 302 111<641.5 672>
LayerCount: 2
Fore
SplineSet
231 13 m 1
 30 503 l 1
 115 503 l 1
 209 276 l 2
 245 189 274 91 274 91 c 1
 275 91 l 1
 275 91 307 189 341 276 c 2
 428 503 l 1
 512 503 l 1
 274 -97 l 2
 236 -194 142 -242 142 -242 c 1
 103 -173 l 1
 103 -173 175 -140 200 -69 c 1
 231 13 l 1
131 657 m 0
 131 687 155 711 185 711 c 0
 217 711 242 687 242 657 c 0
 242 626 217 603 185 603 c 0
 155 603 131 626 131 657 c 0
302 657 m 0
 302 687 326 711 356 711 c 0
 388 711 413 687 413 657 c 0
 413 626 388 603 356 603 c 0
 326 603 302 626 302 657 c 0
EndSplineSet
EndChar

StartChar: yen
Encoding: 165 165 218
Width: 581
Flags: MW
HStem: 107 70<50 248 50 248 333 531> 258 70<50 208 50 248 50 208 373 531>
VStem: 248 85<0 107 0 107 177 258>
LayerCount: 2
Fore
SplineSet
248 0 m 1
 248 107 l 1
 50 107 l 1
 50 177 l 1
 248 177 l 1
 248 258 l 1
 50 258 l 1
 50 328 l 1
 208 328 l 1
 30 682 l 1
 125 682 l 1
 290 356 l 1
 456 682 l 1
 551 682 l 1
 373 328 l 1
 531 328 l 1
 531 258 l 1
 333 258 l 1
 333 177 l 1
 531 177 l 1
 531 107 l 1
 333 107 l 1
 333 0 l 1
 248 0 l 1
EndSplineSet
EndChar

StartChar: z
Encoding: 122 122 219
Width: 495
Flags: MW
HStem: 0 66<234 444 234 444> 437 66<70 233 70 445>
LayerCount: 2
Fore
SplineSet
45 0 m 1
 45 31 l 1
 332 441 l 1
 332 441 291 437 233 437 c 2
 70 437 l 1
 70 503 l 1
 445 503 l 1
 445 468 l 1
 163 63 l 1
 163 63 205 66 234 66 c 2
 444 66 l 1
 444 0 l 1
 45 0 l 1
EndSplineSet
EndChar

StartChar: zcaron
Encoding: 382 382 220
Width: 525
Flags: MW
HStem: 0 66<244 454 244 454> 437 66<80 243 80 455> 750 20G<132 132 362 362>
LayerCount: 2
Fore
SplineSet
55 0 m 1
 55 31 l 1
 342 441 l 1
 342 441 301 437 243 437 c 2
 80 437 l 1
 80 503 l 1
 455 503 l 1
 455 468 l 1
 173 63 l 1
 173 63 215 66 244 66 c 2
 454 66 l 1
 454 0 l 1
 55 0 l 1
227 600 m 1
 92 737 l 1
 132 770 l 1
 247 673 l 1
 362 770 l 1
 402 737 l 1
 267 600 l 1
 227 600 l 1
EndSplineSet
EndChar

StartChar: zero
Encoding: 48 48 221
Width: 656
Flags: MW
HStem: -13 80<275 382 275 401.5> 433 80<275 382>
VStem: 75 85<201.5 299.5 201.5 323> 496 85<201.5 299.5>
LayerCount: 2
Fore
SplineSet
160 250 m 0
 160 153 221 67 329 67 c 0
 435 67 496 153 496 250 c 0
 496 349 435 433 329 433 c 0
 221 433 160 349 160 250 c 0
75 250 m 0
 75 396 183 513 329 513 c 0
 474 513 581 396 581 250 c 0
 581 105 474 -13 329 -13 c 0
 183 -13 75 105 75 250 c 0
EndSplineSet
EndChar

StartChar: infinity
Encoding: 8734 8734 222
Width: 873
Flags: MW
HStem: 141 85<244 304 571 632.5> 452 85<242.5 304 571 631>
VStem: 90 70<301.5 382 301.5 397.5> 715 70<296 376.5>
LayerCount: 2
Fore
SplineSet
452 439 m 1
 480 486 538 537 604 537 c 0
 728 537 785 432 785 339 c 0
 785 222 716 141 604 141 c 0
 534 141 468 189 428 238 c 1
 393 180 337 141 271 141 c 0
 147 141 90 246 90 339 c 0
 90 456 159 537 271 537 c 0
 341 537 412 488 452 439 c 1
417 368 m 1
 386 409 337 452 271 452 c 0
 214 452 160 425 160 339 c 0
 160 264 217 226 271 226 c 0
 342 226 384 285 417 368 c 1
465 309 m 1
 493 267 538 226 604 226 c 0
 661 226 715 253 715 339 c 0
 715 414 658 452 604 452 c 0
 533 452 498 392 465 309 c 1
EndSplineSet
EndChar

StartChar: Thorn
Encoding: 222 222 223
Width: 547
Flags: MW
HStem: 152 75<169 271 271 278 169 271> 488 75<169 241 169 252>
VStem: 85 84<0 152 0 227 227 488 563 682> 422 85<310.5 417.5>
LayerCount: 2
Fore
SplineSet
169 682 m 1
 169 563 l 1
 252 563 l 2
 425 563 507 508 507 362 c 0
 507 203 368 152 278 152 c 2
 169 152 l 1
 169 0 l 1
 85 0 l 1
 85 682 l 1
 169 682 l 1
241 488 m 2
 169 488 l 1
 169 227 l 1
 271 227 l 2
 361 227 422 257 422 364 c 0
 422 471 361 488 241 488 c 2
EndSplineSet
EndChar

StartChar: thorn
Encoding: 254 254 224
Width: 584
Flags: MW
HStem: -13 70<258.5 340> 443 70<288.5 354>
VStem: 100 80<-228 -2 -228 74 74 388 460 749 749 749> 437 85<189 295>
LayerCount: 2
Fore
SplineSet
180 -2 m 1
 180 -228 l 1
 100 -228 l 1
 100 749 l 1
 180 758 l 1
 180 460 l 1
 180 460 256 513 321 513 c 0
 431 513 522 430 522 252 c 0
 522 56 402 -13 278 -13 c 0
 239 -13 206 -8 180 -2 c 1
312 443 m 0
 257 443 180 388 180 388 c 1
 180 74 l 1
 180 74 226 57 278 57 c 0
 402 57 437 130 437 248 c 0
 437 342 396 443 312 443 c 0
EndSplineSet
EndChar

StartChar: onesuperior
Encoding: 185 185 225
Width: 319
Flags: MW
HStem: 315 21G<142 142 142 209> 662 20G<170 209 209 209>
VStem: 142 67<315 614 614 614>
LayerCount: 2
Fore
SplineSet
142 315 m 1
 142 614 l 1
 42 592 l 1
 30 638 l 1
 170 682 l 1
 209 682 l 1
 209 315 l 1
 142 315 l 1
EndSplineSet
EndChar

StartChar: twosuperior
Encoding: 178 178 226
Width: 424
Flags: MW
HStem: 315 59<265 334 265 334> 632 59<169 214.5>
VStem: 253 70<548 603.5>
LayerCount: 2
Fore
SplineSet
80 315 m 1
 80 356 l 1
 80 356 253 510 253 586 c 0
 253 621 238 632 191 632 c 0
 147 632 101 616 101 616 c 1
 84 669 l 1
 84 669 130 691 202 691 c 0
 266 691 323 669 323 592 c 0
 323 503 173 370 173 370 c 1
 173 370 202 374 265 374 c 2
 334 374 l 1
 334 315 l 1
 80 315 l 1
EndSplineSet
EndChar

StartChar: threesuperior
Encoding: 179 179 227
Width: 377
Flags: MW
HStem: 308 55<133 164.5 133 170> 482 48<107 142.5 107 143.5> 632 59<137 175>
VStem: 208 74
LayerCount: 2
Fore
SplineSet
50 327 m 1
 72 378 l 1
 100 364 125 363 141 363 c 0
 188 363 212 383 212 422 c 0
 212 463 180 482 107 482 c 1
 107 530 l 1
 178 530 208 555 208 591 c 0
 208 612 196 632 154 632 c 0
 120 632 96 624 96 624 c 1
 78 679 l 1
 78 679 112 691 160 691 c 0
 226 691 278 665 278 606 c 0
 278 548 236 517 211 509 c 1
 211 507 l 1
 247 494 282 468 282 416 c 0
 282 331 199 308 141 308 c 0
 86 308 50 327 50 327 c 1
EndSplineSet
EndChar

StartChar: onequarter
Encoding: 188 188 228
Width: 883
Flags: MW
HStem: 315 21G<142 142 142 209> 662 20G<170 209 209 209>
VStem: 142 67<315 614 614 614>
LayerCount: 2
Fore
SplineSet
142 315 m 1
 142 614 l 1
 42 592 l 1
 30 638 l 1
 170 682 l 1
 209 682 l 1
 209 315 l 1
 142 315 l 1
217 -55 m 1
 513 757 l 1
 569 737 l 1
 273 -75 l 1
 217 -55 l 1
682 294 m 1
 557 138 l 1
 557 138 600 140 646 140 c 2
 679 140 l 1
 679 195 l 2
 679 270 682 294 682 294 c 1
484 83 m 1
 484 131 l 1
 679 367 l 1
 746 367 l 1
 746 140 l 1
 783 140 l 1
 783 83 l 1
 746 83 l 1
 746 0 l 1
 679 0 l 1
 679 83 l 1
 484 83 l 1
EndSplineSet
EndChar

StartChar: onehalf
Encoding: 189 189 229
Width: 832
Flags: MW
HStem: 0 59<693 762 693 762> 315 21G<142 142 142 209> 317 59<597 642.5> 662 20G<170 209 209 209>
VStem: 142 67<315 614 614 614> 681 70<233 288.5>
LayerCount: 2
Fore
SplineSet
142 315 m 1x58
 142 614 l 1
 42 592 l 1
 30 638 l 1
 170 682 l 1
 209 682 l 1
 209 315 l 1
 142 315 l 1x58
207 -55 m 1
 503 757 l 1
 559 737 l 1
 263 -75 l 1
 207 -55 l 1
508 0 m 1xa4
 508 41 l 1
 508 41 681 195 681 271 c 0
 681 306 666 317 619 317 c 0
 575 317 529 301 529 301 c 1
 512 354 l 1
 512 354 558 376 630 376 c 0
 694 376 751 354 751 277 c 0
 751 188 601 55 601 55 c 1
 601 55 630 59 693 59 c 2
 762 59 l 1
 762 0 l 1
 508 0 l 1xa4
EndSplineSet
EndChar

StartChar: threequarters
Encoding: 190 190 230
Width: 933
Flags: MW
HStem: 308 55<133 164.5 133 170> 482 48<107 142.5 107 143.5> 632 59<137 175>
VStem: 208 74
LayerCount: 2
Fore
SplineSet
267 -55 m 1
 563 757 l 1
 619 737 l 1
 323 -75 l 1
 267 -55 l 1
50 327 m 1
 72 378 l 1
 100 364 125 363 141 363 c 0
 188 363 212 383 212 422 c 0
 212 463 180 482 107 482 c 1
 107 530 l 1
 178 530 208 555 208 591 c 0
 208 612 196 632 154 632 c 0
 120 632 96 624 96 624 c 1
 78 679 l 1
 78 679 112 691 160 691 c 0
 226 691 278 665 278 606 c 0
 278 548 236 517 211 509 c 1
 211 507 l 1
 247 494 282 468 282 416 c 0
 282 331 199 308 141 308 c 0
 86 308 50 327 50 327 c 1
732 294 m 1
 607 138 l 1
 607 138 650 140 696 140 c 2
 729 140 l 1
 729 195 l 2
 729 270 732 294 732 294 c 1
534 83 m 1
 534 131 l 1
 729 367 l 1
 796 367 l 1
 796 140 l 1
 833 140 l 1
 833 83 l 1
 796 83 l 1
 796 0 l 1
 729 0 l 1
 729 83 l 1
 534 83 l 1
EndSplineSet
EndChar

StartChar: currency
Encoding: 164 164 231
Width: 646
Flags: MW
HStem: 26 63<305.5 349.5> 412 63<305.5 350 305.5 366>
VStem: 126 64<223 277.5> 466 64<222.5 277.5 222.5 297.5>
LayerCount: 2
Fore
SplineSet
515 -14 m 1
 446 67 l 1
 413 40 371 26 328 26 c 0
 283 26 242 40 208 68 c 1
 139 -14 l 1
 100 19 l 1
 172 105 l 1
 143 144 126 196 126 250 c 0
 126 305 143 356 172 395 c 1
 100 481 l 1
 139 514 l 1
 208 432 l 1
 242 460 283 475 328 475 c 0
 372 475 413 460 447 433 c 1
 515 514 l 1
 554 481 l 1
 482 396 l 1
 512 356 530 305 530 250 c 0
 530 195 511 144 481 104 c 1
 554 19 l 1
 515 -14 l 1
190 250 m 0
 190 157 254 89 328 89 c 0
 404 89 466 157 466 250 c 0
 466 345 404 412 328 412 c 0
 254 412 190 345 190 250 c 0
EndSplineSet
EndChar

StartChar: fraction
Encoding: 8260 8260 232
Width: 382
Flags: W
LayerCount: 2
Fore
SplineSet
20 -55 m 1
 316 757 l 1
 372 737 l 1
 76 -75 l 1
 20 -55 l 1
EndSplineSet
EndChar

StartChar: fourinferior
Encoding: 8324 8324 233
Width: 469
Flags: W
LayerCount: 2
Fore
SplineSet
268 294 m 1
 143 138 l 1
 143 138 186 140 232 140 c 2
 265 140 l 1
 265 195 l 2
 265 270 268 294 268 294 c 1
70 83 m 1
 70 131 l 1
 265 367 l 1
 332 367 l 1
 332 140 l 1
 369 140 l 1
 369 83 l 1
 332 83 l 1
 332 0 l 1
 265 0 l 1
 265 83 l 1
 70 83 l 1
EndSplineSet
EndChar

StartChar: ogonek
Encoding: 731 731 234
Width: 242
Flags: MW
HStem: -176 61<119.5 157.5>
LayerCount: 2
Fore
SplineSet
84 0 m 1
 164 0 l 1
 105 -28 86 -115 153 -115 c 0
 179 -115 197 -109 197 -109 c 1
 212 -166 l 1
 185 -173 169 -176 146 -176 c 0
 32 -176 -13 -62 84 0 c 1
EndSplineSet
EndChar
